<?xml version="1.0" encoding="UTF-8"?>
<!-- Created with Inkscape (http://www.inkscape.org/) -->
<svg version="1.1" viewBox="0 0 1199 565.98"
  xmlns="http://www.w3.org/2000/svg">
  <g transform="matrix(.30192 0 0 .30192 161.1 -267.23)">
    <path
      d="m3134.7 2756.6c-11.318-3.6319-22.252-11.909-29.571-22.385-7.7438-11.084-10.588-21.542-9.7578-35.88 1.4784-25.54 18.801-46.535 43.757-53.033 11.813-3.0762 19.534-2.9274 30.851 0.5947l9.3697 2.9163 5.3468-4.6908c2.9408-2.58 42.871-37.92 88.734-78.533l83.387-73.842v-334.88h-37.393v-122.65h37.393v-104.7h41.88v104.7h38.889v122.65h-38.889l-0.097 176.87-0.097 176.87-89.627 79.273c-49.295 43.6-91.981 81.293-94.859 83.761l-5.2315 4.4872 2.3275 7.4786c3.2344 10.393 2.2062 29.032-2.1388 38.77-12.53 28.081-44.268 41.849-74.274 32.221zm-3286.9-6.6745c0-1.2464 1.3295-2.2435 2.9914-2.2435 1.6453 0 2.9915-0.6731 2.9915-1.4958 0-0.8226 1.0096-1.4957 2.2436-1.4957 1.234 0 2.2436-0.673 2.2436-1.4957 0-0.8226 0.73813-1.4957 1.6403-1.4957 0.90216 0 7.3196-3.702 14.261-8.2265 6.9413-4.5247 13.27-8.2264 14.065-8.2264 0.79435 0 1.4443-0.6732 1.4443-1.4959 0-0.8226 0.77781-1.4957 1.7285-1.4957 0.95067 0 3.9346-1.6827 6.631-3.7394 2.6964-2.0566 5.6205-3.7391 6.498-3.7391s1.5955-0.6732 1.5955-1.4959c0-0.8226 1.3462-1.4957 2.9914-1.4957 1.6453 0 2.9915-0.673 2.9915-1.4957 0-0.8226 1.0096-1.4957 2.2436-1.4957s2.2436-0.6731 2.2436-1.4957c0-0.8228 1.3462-1.4957 2.9915-1.4957 1.6453 0 2.9914-0.6278 2.9914-1.395 0-0.7673 1.1779-1.7727 2.6175-2.2346 3.037-0.9742 10.844-7.4422 10.844-8.9841 0-0.576-1.6827-3.2537-3.7393-5.95-2.0566-2.6965-3.7393-5.6804-3.7393-6.6309 0-0.9508-0.67308-1.7286-1.4957-1.7286-0.82266 0-1.4957-0.8827-1.4957-1.9616 0-1.0787-1.3462-3.4064-2.9914-5.1725-1.6453-1.7659-2.9914-3.9832-2.9914-4.9272 0-1.481-1.9697-4.3116-8.9969-12.929-0.81025-0.9935-1.4732-2.8445-1.4732-4.1132s-0.67307-2.3068-1.4957-2.3068-1.4957-1.0096-1.4957-2.2435c0-1.234-0.50877-2.2436-1.1306-2.2436-0.62185 0-2.0988-2.1875-3.2821-4.8612-1.1833-2.6736-2.8621-5.7257-3.7305-6.7825-4.6783-5.6934-4.5105-5.4325-11.467-17.818-2.7413-4.8806-4.2167-6.9125-8.4349-11.616-1.0283-1.1466-1.8696-3.0156-1.8696-4.1532s-1.3462-3.5132-2.9915-5.2794c-1.6453-1.7659-2.9915-4.2487-2.9915-5.5171 0-1.2683-0.67307-2.306-1.4957-2.306s-1.4957-0.7015-1.4957-1.5589c0-0.8573-0.67539-2.3718-1.5008-3.3654-2.9427-3.5419-11.961-17.458-11.961-18.456 0-0.5592-1.5648-3.0995-3.4774-5.645-1.9126-2.5456-5.0604-7.4802-6.9952-10.966l-3.5178-6.3374 13.966-13.107c7.6815-7.2089 15.373-14.773 17.091-16.809 1.7187-2.0361 5.3125-5.9736 7.9861-8.7499 2.6736-2.7764 4.8611-5.3055 4.8611-5.6203 0-0.3149 1.6648-2.4351 3.6995-4.7116 7.1554-8.0057 15.745-19.055 15.745-20.253 0-0.6666 1.3462-2.6567 2.9915-4.4228 1.6453-1.7659 2.9914-4.0936 2.9914-5.1725s0.56709-1.9615 1.2602-1.9615 2.5289-2.3557 4.0795-5.2351c1.5506-2.8792 3.3393-5.235 3.9748-5.235 0.63556 0 1.1556-1.0096 1.1556-2.2435 0-1.2341 0.67307-2.2437 1.4957-2.2437 0.82264 0 1.4957-1.346 1.4957-2.9914 0-1.6453 0.67308-2.9915 1.4957-2.9915 0.82264 0 1.4957-1.3461 1.4957-2.9914 0-1.6454 0.67307-2.9915 1.4957-2.9915 0.82265 0 1.4957-1.3462 1.4957-2.9914 0-1.6453 0.6001-2.9915 1.3336-2.9915 0.73345 0 1.7559-1.6826 2.2721-3.7394 0.51618-2.0566 1.5988-3.7392 2.4057-3.7392s1.4672-1.3462 1.4672-2.9915c0-1.6452 0.50878-2.9914 1.1306-2.9914 0.62183 0 2.0121-2.1876 3.0894-4.8612 1.0773-2.6735 2.5878-6.0297 3.3566-7.4583 0.76876-1.4284 1.3978-3.9524 1.3978-5.6089s0.61959-3.0118 1.3769-3.0118c0.75728 0 1.8204-2.0192 2.3624-4.4872 0.54206-2.4679 1.6052-4.4872 2.3624-4.4872 0.75728 0 1.3769-1.3553 1.3769-3.0117 0-1.6565 0.77818-4.517 1.7292-6.3568 3.8205-7.3904 4.2537-8.7101 4.2537-12.959 0-2.4307 0.67307-4.8353 1.4957-5.3438 0.82265-0.5083 1.4957-2.7693 1.4957-5.0241s0.62984-4.7391 1.3997-5.5206c1.9024-1.9314 7.6834-29.146 8.6421-40.684 0.42722-5.1417 1.2981-9.3484 1.9352-9.3484 1.0104 0 2.8359-29.379 3.3458-53.846 0.20302-9.742-2.678-47.509-4.6782-61.325-1.9154-13.23-7.257-36.85-9.122-40.334-0.83749-1.5649-1.5227-4.5324-1.5227-6.5945 0-2.0623-0.67309-4.1655-1.4957-4.6738-0.82265-0.5085-1.4957-2.9039-1.4957-5.3234 0-2.4194-0.67308-4.399-1.4957-4.399-0.82266 0-1.4957-1.3143-1.4957-2.921 0-2.796-0.94076-5.5605-5.4452-16.002-1.1184-2.5923-2.0334-5.4528-2.0334-6.3568s-0.67307-1.6437-1.4957-1.6437c-0.82264 0-1.4957-1.1173-1.4957-2.4829 0-4.1479-21.604-46.922-24.306-48.122-0.61698-0.2743-1.1218-1.3961-1.1218-2.4929 0-1.097-0.50482-2.2187-1.1218-2.4929-1.2535-0.5571-9.3483-12.672-9.3483-13.991 0-0.4633-1.3462-2.2873-2.9914-4.0533-1.6453-1.7661-2.9915-4.0937-2.9915-5.1725 0-1.0789-0.67307-1.9616-1.4957-1.9616-0.82266 0-1.4957-0.6971-1.4957-1.5492 0-0.852-1.3605-3.0395-3.0234-4.8611-5.9023-6.4656-11.245-12.726-15.673-18.364-2.4679-3.1422-6.0016-7.2365-7.8526-9.0982-1.851-1.8616-3.3654-3.8001-3.3654-4.3076 0-1.1002-3.9548-5.1961-5.017-5.1961-0.40895 0-4.0439-3.1972-8.0776-7.1048-16.438-15.924-27.479-25.801-28.84-25.801-0.79275 0-1.4414-0.6732-1.4414-1.4957 0-0.8228-0.84135-1.4967-1.8696-1.4976-1.0283 0-3.8253-1.6838-6.2156-3.7393-2.3902-2.0557-4.8145-3.7375-5.3871-3.7375-0.57269 0-3.1542-2.0192-5.7366-4.4873-2.5825-2.4679-5.6326-4.4871-6.7782-4.4871-1.1455 0-2.4348-1.3461-2.865-2.9914-0.73904-2.8262-0.0458-2.9914 12.539-2.9914 7.8839 0 13.322 0.6104 13.322 1.4957 0 0.8225 1.0096 1.4957 2.2436 1.4957 1.234 0 2.2436 0.5593 2.2436 1.2429 0 0.6837 1.8415 2.1981 4.0923 3.3654 4.3893 2.2765 8.1634 5.0435 12.585 9.2271 1.5217 1.4397 3.4397 2.6175 4.2624 2.6175 0.82266 0 1.4957 0.5594 1.4957 1.2431 0 0.6835 1.851 2.1886 4.1132 3.3444 2.2623 1.1559 6.7267 4.6453 9.9209 7.7542 3.1942 3.1088 10.185 9.5124 15.535 14.23 15.364 13.548 19.017 17.196 22.819 22.787 1.9579 2.8792 4.636 6.2447 5.9513 7.4786 1.3153 1.234 4.3739 4.9359 6.7969 8.2266 2.423 3.2905 6.2586 7.7673 8.5235 9.9483 2.2649 2.1811 4.1181 4.4135 4.1181 4.9609 0 0.5476 1.6827 3.2016 3.7393 5.8979 2.0566 2.6965 3.7393 5.6804 3.7393 6.631 0 0.9507 0.67308 1.7285 1.4957 1.7285 0.82265 0 1.4957 1.0096 1.4957 2.2435 0 1.2341 0.67308 2.2437 1.4957 2.2437 0.82265 0 1.4957 0.7778 1.4957 1.7285 0 0.9506 1.6827 3.9345 3.7393 6.631 2.0566 2.6963 3.7393 5.6204 3.7393 6.498 0 0.8775 0.59457 1.5955 1.3213 1.5955 0.72671 0 1.7068 1.1778 2.1779 2.6176 0.47114 1.4396 2.5689 5.4961 4.6616 9.0144 2.0928 3.5184 3.805 7.3324 3.805 8.4758 0 1.1433 0.56032 2.3031 1.2452 2.5774 1.5636 0.626 9.2249 17.339 9.2249 20.124 0 1.1346 0.67307 2.0629 1.4957 2.0629 0.82266 0 1.4957 1.0187 1.4957 2.2639 0 1.2451 0.62631 3.4326 1.3918 4.8612 0.7655 1.4284 2.8621 6.6355 4.6591 11.572 1.797 4.9358 4.1995 11.185 5.339 13.886 1.1394 2.7015 2.0717 6.5321 2.0717 8.5122s0.59871 3.9704 1.3305 4.4226 1.704 3.0161 2.1606 5.6972c0.45656 2.6813 1.5762 8.2404 2.4882 12.354 2.366 10.672 4.1574 20.773 5.9682 33.654 0.86738 6.1698 2.236 14.088 3.0413 17.596 0.80534 3.508 1.4419 20.671 1.4145 38.141-0.0389 24.915-0.70691 35.632-3.0982 49.712-1.6766 9.8718-3.6472 21.987-4.3791 26.923-2.4378 16.441-3.2632 20.214-4.6041 21.042-0.73175 0.4522-1.3305 3.1384-1.3305 5.969 0 2.8308-0.67307 5.1468-1.4957 5.1468-0.82264 0-1.4982 1.851-1.5012 4.1134-3e-3 2.2622-2.0854 9.4977-4.6277 16.079-2.5422 6.5811-4.974 13.48-5.404 15.331-0.42995 1.851-1.3763 3.3655-2.1031 3.3655-0.72674 0-1.3214 1.6827-1.3214 3.7393s-0.67307 3.7393-1.4957 3.7393c-0.82265 0-1.4957 1.2072-1.4957 2.6827s-1.942 6.3553-4.3156 10.844c-2.3736 4.4888-7.8649 15.06-12.203 23.493-4.3381 8.4321-8.3721 15.331-8.9645 15.331-0.59239 0-1.9135 2.0192-2.9358 4.4872-1.0222 2.4679-2.4501 4.4871-3.1729 4.4871-0.72283 0-1.3143 1.0097-1.3143 2.2437 0 1.2339-0.67307 2.2436-1.4957 2.2436-0.82264 0-1.4957 0.8922-1.4957 1.9827 0 1.0907-1.6827 3.5639-3.7393 5.4958-2.0566 1.9322-3.7393 4.3055-3.7393 5.274 0 0.9686-1.8601 3.7118-4.1336 6.0961-2.2734 2.3843-6.1436 7.0181-8.6004 10.297s-6.4861 8.0701-8.9541 10.646c-2.4679 2.5763-5.5677 5.9509-6.8884 7.4992-1.3207 1.5485-5.0226 5.2312-8.2265 8.1839-3.2039 2.9528-6.9138 6.6547-8.2443 8.2266-1.3305 1.5717-4.8496 4.8771-7.8202 7.345-3.777 3.138-5.4109 5.7241-5.4335 8.6005-0.0178 2.2623 0.64075 4.1132 1.4634 4.1132 0.82264 0 1.4957 1.0096 1.4957 2.2437 0 1.2338 0.67307 2.2436 1.4957 2.2436 0.82266 0 1.4957 1.0389 1.4957 2.3088s1.6827 4.1236 3.7393 6.3415c2.0566 2.2181 3.7393 4.881 3.7393 5.9177s0.59459 1.8849 1.3213 1.8849c0.7267 0 1.6948 1.1779 2.1514 2.6175 0.82148 2.5904 5.5408 10.896 7.0114 12.34 1.9775 1.9412 8.9604 13.572 8.9604 14.925 0 0.8402 0.67308 1.5277 1.4957 1.5277 0.82266 0 1.4957 1.0096 1.4957 2.2436 0 1.2339 0.67307 2.2435 1.4957 2.2435s1.4957 1.3463 1.4957 2.9916c0 1.6452 0.52003 2.9914 1.1556 2.9914 0.63556 0 2.4242 2.3557 3.9748 5.235 1.5506 2.8792 3.3863 5.2351 4.0794 5.2351s1.2602 1.0376 1.2602 2.306 1.3462 3.7512 2.9914 5.5171c1.6453 1.7661 2.9914 4.0936 2.9914 5.1725s0.67307 1.9616 1.4957 1.9616c0.82265 0 1.4957 0.718 1.4957 1.5955 0 0.8776 1.6827 3.8017 3.7393 6.4981 2.0566 2.6963 3.7393 5.6803 3.7393 6.6309 0 0.9508 0.67308 1.7286 1.4957 1.7286 0.82265 0 1.4957 1.0096 1.4957 2.2435 0 1.234 0.67308 2.2436 1.4957 2.2436 0.82265 0 1.4957 1.3461 1.4957 2.9914s0.52001 2.9916 1.1556 2.9916 2.4243 2.3557 3.9748 5.235c1.5506 2.8792 3.3864 5.2349 4.0795 5.2349 0.6931 0 1.2602 1.0378 1.2602 2.3062s1.3462 3.7511 2.9915 5.5171c1.6453 1.766 2.9915 4.4302 2.9915 5.9204 0 1.4901 0.51717 2.7094 1.1493 2.7094 0.63211 0 2.2554 1.8228 3.6072 4.051l2.458 4.0508-8.4684 5.629c-4.6576 3.096-9.3097 5.6481-10.338 5.6714-1.0283 0.023-1.8697 0.7152-1.8697 1.538 0 0.8226-0.88271 1.4957-1.9616 1.4957-1.0788 0-3.4065 1.3461-5.1725 2.9914s-3.9571 2.9916-4.869 2.9916c-1.7859 0-12.352 7.4973-13.175 9.3482-0.27422 0.6169-1.7886 1.1219-3.3654 1.1219-1.5767 0-2.8668 0.5474-2.8668 1.2165 0 0.669-2.3558 2.1408-5.235 3.2706s-5.235 2.4568-5.235 2.9491c0 0.4924-3.6996 2.8907-8.2213 5.3298-4.5217 2.439-8.2236 4.9396-8.2265 5.5565-3e-3 0.617-1.3514 1.1218-2.9967 1.1218-1.6453 0-2.9914 0.6731-2.9914 1.4957 0 0.8227-0.72117 1.4958-1.6026 1.4958-0.88141 0-2.6122 1.0097-3.8462 2.2435-1.6394 1.6394-5.6386 2.2437-14.85 2.2437-10.209 0-12.607-0.4268-12.607-2.2437zm-56.09-36.645c-2.468-4.0821-4.992-7.4348-5.609-7.4503-0.61698-0.015-1.1218-1.3745-1.1218-3.0198 0-1.6452-0.67309-2.9914-1.4957-2.9914s-1.4957-1.0096-1.4957-2.2436c0-1.2339-0.67308-2.2435-1.4957-2.2435-0.82266 0-1.4957-1.0578-1.4957-2.3505 0-1.2928-0.84135-3.2887-1.8696-4.4353-4.4386-4.9495-5.609-6.6414-5.609-8.1084 0-0.8574-0.67307-1.5589-1.4957-1.5589-0.82264 0-1.4957-1.3461-1.4957-2.9914s-0.59143-2.9914-1.3143-2.9914c-0.72285 0-2.2124-2.1876-3.3101-4.8612-1.0977-2.6736-2.6938-5.7257-3.5468-6.7827-4.8312-5.9854-4.4462-5.388-11.186-17.354-5.136-9.1191-14.069-22.613-15.295-23.104-0.68518-0.2743-1.2458-1.7887-1.2458-3.3653 0-1.5768-0.67307-2.867-1.4957-2.867-0.82264 0-1.4957-0.6431-1.4957-1.4292 0-1.3747-5.816-10.85-8.9533-14.587-0.83424-0.9936-1.5168-2.5081-1.5168-3.3653 0-0.8574-0.67308-1.5589-1.4957-1.5589-0.82264 0-1.4957-1.3463-1.4957-2.9916s-0.67309-2.9914-1.4957-2.9914c-0.82265 0-1.4957-0.6875-1.4957-1.5277 0-1.3529-6.9829-12.984-8.9604-14.925-0.93066-0.9136-4.3253-6.789-7.1295-12.34-1.6477-3.2616-3.121-4.1133-7.1152-4.1133-2.7705 0-5.4532 0.6731-5.9616 1.4957-0.50843 0.8228-2.4328 1.4957-4.2763 1.4957-1.8435 0-3.9913 0.6106-4.7728 1.3569-1.7334 1.6551-10.92 4.4687-20.491 6.276-3.9076 0.7378-10.638 2.0619-14.957 2.9424-12.008 2.4478-31.284 4.3999-52.335 5.3l-19.055 0.815-0.38925 66.815-0.38923 66.815-34.778 0.4017-34.778 0.4015 0.37669-400.51 0.37669-400.51 47.863 0.1c26.45 0.055 55.893 0.925 65.812 1.9447 9.8718 1.015 22.492 2.2033 28.045 2.641 5.5529 0.4375 10.096 1.3427 10.096 2.0114 0 0.6686 2.524 1.53 5.609 1.914 8.1053 1.0088 29.176 6.8791 30.907 8.6109 0.81133 0.8114 3.3598 1.4752 5.6632 1.4752s4.188 0.6731 4.188 1.4957c0 0.8227 1.3553 1.4959 3.0118 1.4959s4.517 0.7781 6.3568 1.7291c7.0189 3.6284 8.6068 4.2537 10.803 4.2537 1.2451 0 2.2639 0.6001 2.2639 1.3335 0 0.7335 1.6827 1.756 3.7393 2.2721 2.0566 0.5162 3.7393 1.5988 3.7393 2.4059 0 0.8069 0.98914 1.4672 2.1981 1.4672 1.209 0 4.4821 1.2827 7.2737 2.8508 12.237 6.873 13.868 7.9216 17.947 11.535 1.0381 0.9198 3.3922 2.1498 5.2312 2.7336 1.839 0.5836 4.9742 2.6917 6.967 4.6844 1.9928 1.9928 4.0894 3.6233 4.659 3.6233 0.56966 0 3.9106 2.3558 7.4244 5.235 3.5138 2.8794 6.9485 5.268 7.6327 5.3085 0.6842 0.04 3.9363 2.7279 7.2269 5.9722 3.2906 3.2444 6.4877 5.9036 7.1047 5.9096 0.61698 0 1.1218 1.0202 1.1218 2.2542 0 1.2339 0.59981 2.2435 1.3329 2.2435 1.7726 0 21.103 19.286 21.103 21.054 0 0.7598 0.76303 1.3815 1.6956 1.3815 2.4132 0 8.7965 7.4287 21.849 25.427 3.8777 5.3473 7.4507 10.059 7.94 10.47 2.2635 1.9029 14.883 22.763 14.883 24.602 0 1.1398 0.55398 2.2967 1.2311 2.5708 1.6366 0.6629 12.23 20.81 12.23 23.26 0 1.0551 0.67309 1.9186 1.4957 1.9186 0.82264 0 1.4957 1.3064 1.4957 2.9031 0 1.5968 0.67307 3.3192 1.4957 3.8277 0.82265 0.5083 1.4957 2.2399 1.4957 3.8478 0 1.608 0.60591 4.0923 1.3465 5.5207 0.74054 1.4285 3.0394 6.9722 5.1085 12.319 3.6473 9.4257 4.8624 13.792 6.4513 23.184 0.41753 2.4679 1.3482 5.8332 2.068 7.4785 0.71991 1.6453 1.707 6.0204 2.1935 9.7223s1.5431 11.779 2.348 17.949c4.6107 35.344 4.5617 64.732-0.1633 97.97-0.8186 5.7586-1.8712 13.499-2.339 17.201-0.46783 3.7019-1.4584 7.3701-2.2013 8.1516-0.7429 0.7815-1.3507 3.6025-1.3507 6.2686 0 2.6663-0.67307 5.2636-1.4957 5.772-0.82266 0.5085-1.4957 2.8642-1.4957 5.2351s-0.67307 4.7265-1.4957 5.235c-0.82264 0.5085-1.4999 2.0626-1.505 3.4536-5e-3 1.3912-1.0147 4.4573-2.2436 6.8136-1.2289 2.3563-2.2344 5.5534-2.2344 7.1046 0 1.5514-0.67309 2.8205-1.4957 2.8205-0.82265 0-1.4957 1.2198-1.4957 2.7106s-1.3462 5.4967-2.9914 8.902c-1.6453 3.4055-2.9915 7.2337-2.9915 8.5074 0 1.2738-0.66025 2.3159-1.4672 2.3159-0.80697 0-1.8896 1.6827-2.4057 3.7393-0.51619 2.0566-1.5386 3.7394-2.2721 3.7394-0.73348 0-1.3336 1.3461-1.3336 2.9914s-0.67308 2.9915-1.4957 2.9915c-0.82265 0-1.4957 1.3461-1.4957 2.9915 0 1.6453-0.50877 2.9914-1.1306 2.9914s-2.0988 2.1875-3.2821 4.8611c-1.1833 2.6737-2.6837 5.5342-3.334 6.3569-5.3648 6.7858-8.3383 11.072-10.118 14.583-1.1467 2.2622-2.6442 4.1132-3.3278 4.1132-0.68364 0-1.243 1.002-1.243 2.2265 0 2.1129-1.2871 3.9747-8.2265 11.899-1.6453 1.879-5.3472 6.3589-8.2265 9.9552-8.342 10.42-46.505 47.711-48.833 47.717-0.70076 0-3.6299 2.0196-6.5092 4.4837-2.8793 2.4641-5.7092 4.4818-6.2888 4.4836-0.57959 0-2.6384 1.5179-4.5751 3.369-1.9367 1.8509-4.8279 4.1106-6.4248 5.0213-3.6222 2.066-4.4029 5.5582-1.8564 8.3042 2.6249 2.8306 7.1728 10.378 8.1939 13.598 0.45656 1.4396 1.4247 2.6175 2.1514 2.6175 0.7267 0 1.3213 0.7884 1.3213 1.7519 0 0.9636 0.94053 2.8145 2.0901 4.1132 2.6751 3.0224 9.7458 15.024 10.864 18.441 0.47114 1.4396 1.4512 2.6175 2.1779 2.6175 0.7267 0 1.3213 0.6874 1.3213 1.5277 0 1.8158 7.7349 13.959 9.3483 14.676 0.61699 0.2742 1.1218 1.7886 1.1218 3.3653 0 1.5768 0.67308 2.8669 1.4957 2.8669 0.82264 0 1.4957 1.0096 1.4957 2.2435 0 1.234 0.67307 2.2436 1.4957 2.2436 0.82265 0 1.4957 1.3461 1.4957 2.9914s0.56708 2.9916 1.2602 2.9916 2.5289 2.3557 4.0794 5.235c1.5506 2.8792 3.3393 5.2349 3.9748 5.2349s1.1556 1.3463 1.1556 2.9916 0.56503 2.9914 1.2556 2.9914c0.69061 0 2.043 1.7281 3.0054 3.8402 0.96235 2.1121 4.6242 8.3381 8.1374 13.836 3.5132 5.4973 7.3226 11.846 8.4653 14.108 1.1427 2.2623 2.637 4.1132 3.3207 4.1132s1.243 1.2901 1.243 2.8668c0 1.5768 0.50482 3.0912 1.1218 3.3654 1.6134 0.7172 9.3483 12.86 9.3483 14.676 0 0.8402 0.59458 1.5277 1.3213 1.5277 2.0254 0 2.9438 5.2561 1.4003 8.0142-0.75596 1.3508-2.3506 2.4559-3.5437 2.4559s-2.1693 0.5088-2.1693 1.1307c0 0.6218-2.1875 2.0988-4.8611 3.2821-2.6736 1.1833-5.5342 2.7032-6.3568 3.3777-3.6896 3.0245-12.981 8.6626-14.276 8.6626-0.78612 0-1.4293 0.6729-1.4293 1.4957 0 0.8226-1.3462 1.4957-2.9915 1.4957-1.6453 0-2.9914 0.5442-2.9914 1.2095 0 0.9912-16.715 10.822-18.24 10.728-0.25105-0.015-2.4757-3.3682-4.9436-7.4505zm-166.77-213.64c18.53-2.9436 33.999-6.9017 36.571-9.3573 0.78152-0.7463 2.9293-1.3569 4.7728-1.3569 1.8436 0 3.7679-0.6731 4.2763-1.4957 0.50842-0.8226 2.5276-1.4957 4.4872-1.4957 1.9595 0 3.9788-0.6731 4.4872-1.4957 0.50842-0.8227 2.2308-1.4957 3.8276-1.4957 1.5968 0 2.9032-0.6731 2.9032-1.4958 0-0.8226 1.023-1.4957 2.2733-1.4957 1.2503 0 4.784-1.567 7.8526-3.4823 3.0686-1.9153 7.7668-4.4355 10.44-5.6002 2.6736-1.1648 4.8611-2.6266 4.8611-3.2485 0-0.6218 1.0096-1.1306 2.2436-1.1306 1.234 0 2.2436-0.6731 2.2436-1.4957 0-0.8225 1.3462-1.4957 2.9914-1.4957s2.9914-0.5279 2.9914-1.1733c0-0.6452 2.1875-2.4483 4.8611-4.0068 2.6736-1.5586 5.9497-4.0595 7.2801-5.5576 1.3305-1.4982 3.1814-2.7238 4.1133-2.7238 0.93181 0 1.6942-0.5914 1.6942-1.3143 0-0.7228 2.0192-2.1506 4.4872-3.1729 2.468-1.0222 4.5017-2.6183 4.5195-3.5468 0.0178-0.9286 2.4336-3.7075 5.3685-6.1754 10.191-8.5692 14.044-12.427 14.044-14.062 0-0.904 0.5048-1.6465 1.1218-1.6504 1.5769-0.015 9.386-7.5557 13.835-13.37 14.893-19.459 20.935-28.008 20.938-29.626 1e-3 -1.0283 0.67574-1.8695 1.4984-1.8695 0.82266 0 1.4957-0.7779 1.4957-1.7286 0-0.9506 1.5557-3.8112 3.4571-6.3567 1.9014-2.5456 4.3872-6.9842 5.5239-9.8635 1.1367-2.8792 3.283-7.443 4.7694-10.142s2.7026-6.2324 2.7026-7.8526c0-1.6203 0.64257-2.946 1.428-2.946 0.78536 0 1.8699-2.3557 2.41-5.2351 0.54015-2.8792 1.5039-5.235 2.1416-5.235 1.1707 0 2.4796-5.0382 3.9853-15.34 0.45164-3.0901 1.4231-5.9904 2.1589-6.4451 0.73576-0.4547 1.3377-3.7762 1.3377-7.3811 0-3.6047 0.57196-6.9076 1.271-7.3398 3.6576-2.2605 5.0404-58.944 2.0102-82.404-3.1805-24.624-3.5788-26.914-4.9302-28.344-0.73839-0.7815-1.3425-3.0894-1.3425-5.1288 0-4.9594-4.9488-19.98-9.0468-27.458-0.78279-1.4284-1.4233-3.2931-1.4233-4.1438 0-2.9649-15.52-33.74-18.099-35.887-0.49383-0.4114-1.7562-2.4307-2.8053-4.4873-3.6528-7.1609-24.739-34.241-28.081-36.064-1.851-1.0093-3.3654-2.4121-3.3654-3.1175 0-1.3254-12.826-14.665-14.1-14.665-0.39468 0-3.7036-3.0289-7.3531-6.7308-3.6496-3.7019-7.3828-6.7308-8.2961-6.7308s-1.6606-0.6731-1.6606-1.4957c0-0.8227-0.70367-1.4957-1.5637-1.4957-0.86005 0-3.1834-1.5144-5.163-3.3654-6-5.61-8.0329-7.1047-9.6631-7.1047-0.85737 0-1.5588-0.6731-1.5588-1.4957 0-0.8227-1.3462-1.4957-2.9914-1.4957s-2.9914-0.5612-2.9914-1.247c0-0.6857-3.7019-3.1837-8.2265-5.5509-4.5246-2.3672-8.2265-4.8348-8.2265-5.4838 0-0.6489-1.3462-1.1799-2.9915-1.1799-1.6453 0-2.9915-0.673-2.9915-1.4957 0-0.8226-1.6827-1.4957-3.7393-1.4957s-3.7393-0.6732-3.7393-1.4957c0-0.8228-1.3462-1.4958-2.9915-1.4958-1.6453 0-2.9915-0.6731-2.9915-1.4957 0-0.8227-1.5481-1.4958-3.4402-1.4958-1.8921 0-4.0796-0.5865-4.8611-1.3033-0.78151-0.717-5.4594-2.4607-10.395-3.875-4.9359-1.4142-10.52-3.1835-12.41-3.9316-1.8897-0.7481-5.0471-1.3601-7.0164-1.3601-1.9694 0-3.9966-0.6731-4.5051-1.4958-0.50842-0.8226-4.7885-1.4957-9.5114-1.4957-4.7228 0-9.2264-0.6025-10.008-1.3389-0.78151-0.7364-12.19-1.5779-25.353-1.8698l-23.932-0.5307-0.37812 262.2-0.3781 262.2 23.562-0.673c12.959-0.3702 27.937-1.368 33.284-2.2174zm6.8174-67.216c-1.1554-1.1552-1.0569-371.29 0.10025-377.07 0.78143-3.9072 1.626-4.6743 5.1468-4.6743 2.3166 0 4.6279 0.6731 5.1364 1.4958 0.50842 0.8226 2.5674 1.4957 4.5754 1.4957 2.0081 0 3.651 0.673 3.651 1.4957 0 0.8226 1.12 1.4957 2.4889 1.4957 3.3609 0 13.964 4.7616 13.964 6.2708 0 0.6643 1.3064 1.2079 2.9032 1.2079 1.5968 0 3.3192 0.673 3.8276 1.4957 0.50844 0.8226 2.2309 1.4957 3.8276 1.4957s2.9032 0.6732 2.9032 1.4957c0 0.8228 0.90621 1.4957 2.0138 1.4957 1.1076 0 4.2111 1.0963 6.8966 2.4359 5.5711 2.7793 5.4898-1.2395 0.81297 40.192-1.3 11.517-3.0153 28.344-3.8116 37.393-0.79634 9.0492-2.1358 23.857-2.9765 32.906-1.501 16.156-3.237 35.381-5.7402 63.568-0.69403 7.8152-3.1274 32.046-5.4076 53.846s-4.7414 46.368-5.4695 54.594c-0.72808 8.2265-1.9472 22.024-2.7092 30.662-3.5559 40.309-2.9138 37.104-7.9375 39.611-2.5023 1.2483-5.465 2.2697-6.5838 2.2697-1.1188 0-3.2028 0.5829-4.6313 1.2952-4.744 2.3658-12.134 4.3743-12.981 3.5278zm-0.48627 238.61 0.39961-37.765 15.705-2.4696c11.474-1.8044 16.244-2.0284 17.706-0.8316 1.6164 1.3232 1.4007 1.8602-1.1218 2.7933-3.0528 1.1294-3.1229 1.9958-3.1229 38.597v37.441h-29.966zm740.78 36.27c-0.5084-0.8228-0.2116-1.4957 0.6596-1.4957s1.584-1.6431 1.584-3.6511c0-2.0081 0.6731-4.0671 1.4958-4.5755 0.8226-0.5084 1.4957-2.5276 1.4957-4.4872 0-1.9595 0.5485-3.9018 1.219-4.3162 0.6704-0.4143 2.5213-4.8289 4.1129-9.8104 1.5917-4.9814 3.3989-9.0572 4.0161-9.0572 0.6171 0 1.1221-1.6429 1.1221-3.651s0.673-4.067 1.4957-4.5754c0.8226-0.5084 1.4957-2.5674 1.4957-4.5755 0-2.008 0.5967-3.651 1.326-3.651s1.6641-1.8509 2.0775-4.1132c0.4133-2.2624 2.5865-8.8248 4.8292-14.583 2.2428-5.7585 4.4152-11.984 4.8277-13.836 0.4124-1.8509 1.3445-3.3653 2.0712-3.3653 0.7268 0 1.3214-1.6919 1.3214-3.7596 0-2.0678 0.6731-5.0968 1.4957-6.7309 0.8227-1.6341 2.1688-4.3081 2.9915-5.9422 0.8226-1.6341 1.4957-3.8865 1.4957-5.0053 0-1.8932 2.8202-8.7652 6.0791-14.813 0.7698-1.4285 1.3995-3.6251 1.3995-4.8814 0-1.2564 0.6731-3.6213 1.4958-5.2554 0.8226-1.6341 2.1688-4.3082 2.9914-5.9423 0.8227-1.6342 1.4958-4.663 1.4958-6.7308s0.5049-3.7596 1.122-3.7596c0.6172 0 2.4244-4.0757 4.0161-9.0571 1.5916-4.9814 3.4425-9.3962 4.1129-9.8105 0.6705-0.4144 1.219-2.3566 1.219-4.3162 0-1.9594 0.6731-3.9786 1.4958-4.4871 0.8226-0.5085 1.4957-2.5674 1.4957-4.5754 0-2.0082 0.6731-3.6511 1.4957-3.6511 0.8227 0 1.4957-1.643 1.4957-3.651 0-2.0082 0.6731-4.0671 1.4958-4.5754 0.8226-0.5085 1.4957-2.5277 1.4957-4.4873 0-1.9594 0.5485-3.9018 1.219-4.3162s2.5213-4.829 4.113-9.8105c1.5916-4.9813 3.3988-9.057 4.016-9.057 0.6171 0 1.1221-1.643 1.1221-3.651 0-2.0082 0.6731-4.0671 1.4957-4.5756 0.8227-0.5083 1.4957-2.24 1.4957-3.8479s0.5946-4.0922 1.3213-5.5206c1.5142-2.9767 3.4197-7.8034 6.0446-15.311 4.5359-12.973 6.9261-18.733 7.9653-19.195 0.617-0.2742 1.1218-2.327 1.1218-4.5619s0.5357-4.7028 1.1904-5.4843 2.0567-4.1134 3.1155-7.4039c2.1459-6.6691 5.5687-15.102 7.7324-19.05 0.7828-1.4286 1.4233-3.8404 1.4233-5.3597 0-1.5195 0.4612-3.2238 1.025-3.7876 1.4604-1.4603 4.9086-11.717 4.9353-14.68 0.012-1.3711 0.5304-2.7171 1.151-2.9914 0.6206-0.2742 2.7433-5.21 4.717-10.969s4.4947-12.288 5.6023-14.509 2.0138-5.4186 2.0138-7.1047c0-1.6862 0.6731-3.0657 1.4957-3.0657 0.8227 0 1.4958-1.6431 1.4958-3.6511s0.673-4.0671 1.4957-4.5754c0.8226-0.5085 1.4957-2.1044 1.4957-3.5466s1.3462-5.4086 2.9915-8.8139 2.9914-7.1051 2.9914-8.2216c0-1.1164 0.9882-3.3365 2.196-4.9333 1.2079-1.5969 2.2175-4.3782 2.2436-6.1806 0.026-1.8023 0.7207-3.6931 1.5433-4.2015 0.8227-0.5084 1.4958-2.4327 1.4958-4.2762 0-1.8436 0.556-3.9914 1.2356-4.7729s2.1494-4.4499 3.2662-8.1518 3.5896-10.054 5.4951-14.115 3.4646-8.5651 3.4646-10.008 0.6731-3.0393 1.4957-3.5477c0.8227-0.5084 1.4958-2.5276 1.4958-4.4872 0-1.9595 0.673-3.9787 1.4957-4.4871 0.8226-0.5085 1.4957-2.2401 1.4957-3.848 0-1.6078 0.6165-4.0921 1.37-5.5206 0.7535-1.4284 2.4688-5.2895 3.8118-8.5802 1.3429-3.2906 3.0822-7.1517 3.865-8.5801 0.7828-1.4285 1.4233-3.6251 1.4233-4.8814 0-1.2564 0.6731-3.6213 1.4957-5.2554 0.8227-1.6341 2.1688-4.3081 2.9915-5.9422 0.8226-1.6341 1.4957-4.2868 1.4957-5.8947s0.6731-3.3395 1.4957-3.8478c0.8227-0.5085 1.4957-2.24 1.4957-3.8479s0.6506-4.0923 1.4458-5.5208c0.7951-1.4284 3.1869-7.3087 5.3151-13.067 2.1281-5.7586 4.5064-11.639 5.285-13.067 0.7786-1.4284 1.4157-3.9127 1.4157-5.5207 0-1.6079 0.6731-3.3395 1.4957-3.8478 0.8227-0.5085 1.4957-2.5277 1.4957-4.4873 0-1.9594 0.6731-3.9786 1.4958-4.4871 0.8226-0.5085 1.4957-2.5674 1.4957-4.5754 0-2.0082 0.5982-3.6511 1.3293-3.6511s1.7712-2.3558 2.3113-5.235c0.5402-2.8794 1.6247-5.2351 2.4101-5.2351s1.4279-1.643 1.4279-3.651c0-2.0082 0.6731-4.0671 1.4958-4.5754 0.8226-0.5085 1.4957-2.2402 1.4957-3.8481 0-1.6077 0.6731-4.2604 1.4957-5.8945 0.8227-1.6341 2.1688-4.3082 2.9915-5.9423 0.8226-1.6342 1.4957-3.9932 1.4957-5.2425 0-1.2492 1.6827-5.7593 3.7393-10.022 2.0566-4.2632 3.7393-8.9316 3.7393-10.374 0-1.4428 0.6731-3.0392 1.4958-3.5477 0.8226-0.5083 1.4957-2.5672 1.4957-4.5754 0-2.008 0.6731-3.651 1.4957-3.651 0.8227 0 1.4957-2.0193 1.4957-4.4872s0.6731-4.4872 1.4958-4.4872c0.8226 0 1.4957-1.548 1.4957-3.4401 0-1.8922 0.5917-4.0797 1.315-4.8612s2.1489-4.1132 3.1681-7.4039c1.9442-6.2773 5.2906-14.656 7.6084-19.05 0.7535-1.4284 1.37-3.9127 1.37-5.5206s0.6731-3.3394 1.4958-3.8479c0.8226-0.5085 1.4957-2.1763 1.4957-3.7064 0-1.53 0.946-4.6875 2.1023-7.0165 1.1564-2.3288 3.5589-8.2729 5.339-13.209 1.7802-4.936 3.8629-10.143 4.6284-11.572 0.7655-1.4284 1.3918-3.8402 1.3918-5.3597 0-1.5193 0.4613-3.2236 1.0251-3.7874 1.4907-1.4908 4.909-11.745 4.9353-14.805 0.012-1.4396 0.6956-2.6175 1.5182-2.6175 0.8227 0 1.4958-1.2175 1.4958-2.7057 0-1.488 0.9882-4.0121 2.196-5.6089 1.2078-1.5969 2.2174-4.3782 2.2436-6.1805 0.026-1.8024 0.7206-3.6932 1.5433-4.2015 0.8226-0.5085 1.4957-2.5277 1.4957-4.4873 0-1.9594 0.6731-3.9788 1.4957-4.4871 0.8227-0.5085 1.4958-2.5674 1.4958-4.5754 0-2.0082 0.673-3.651 1.4957-3.651 0.8226 0 1.4957-1.2428 1.4957-2.7618 0-2.5171 2.4863-8.8732 6.0791-15.541 0.7698-1.4284 1.3995-4.0793 1.3995-5.891v-3.2938l2.9915 3.2111c1.6453 1.7659 2.9915 4.9217 2.9915 7.0128 0 2.0909 0.673 3.8017 1.4957 3.8017 0.8226 0 1.4957 1.5481 1.4957 3.4403 0 1.8921 0.5903 4.0795 1.3119 4.861 0.7215 0.7816 2.4869 5.123 3.9231 9.6475 1.4363 4.5245 3.2017 8.8658 3.9232 9.6473 0.7216 0.7817 1.3119 2.9691 1.3119 4.8612s0.6731 3.4403 1.4957 3.4403c0.8227 0 1.5059 1.1777 1.5183 2.6175 0.026 3.0599 3.4446 13.314 4.9353 14.805 0.5638 0.5636 1.0251 2.2681 1.0251 3.7874 0 1.5194 0.6404 3.9313 1.4232 5.3597 0.7828 1.4286 2.5221 5.2896 3.8651 8.5801 1.343 3.2907 3.0583 7.1517 3.8117 8.5801 0.7535 1.4286 1.37 3.818 1.37 5.3099 0 1.492 0.5561 3.3521 1.2357 4.1336s2.1118 4.4497 3.1828 8.1517c1.0709 3.7019 3.416 10.096 5.2114 14.209 1.7952 4.1132 4.1821 10.508 5.3037 14.209 1.1218 3.702 2.5956 7.3702 3.2752 8.1517 0.6797 0.7815 1.2357 2.9293 1.2357 4.7729 0 1.8435 0.6731 3.7678 1.4957 4.2763 0.8226 0.5083 1.4957 2.5674 1.4957 4.5754s0.5303 3.651 1.1784 3.651 2.499 4.375 4.1132 9.7221 3.4397 9.7221 4.0567 9.7223c0.617 0 1.1218 1.643 1.1218 3.6512 0 2.008 0.6731 4.0669 1.4957 4.5754 0.8228 0.5085 1.4957 2.2399 1.4957 3.8479 0 1.6079 0.604 4.0922 1.3423 5.5208 0.7381 1.4284 2.3529 5.2894 3.5885 8.5801 1.2354 3.2905 3.6604 9.6062 5.3886 14.035 1.7281 4.4287 3.1423 8.9719 3.1423 10.096s0.6729 2.0442 1.4957 2.0442c0.8226 0 1.4957 1.907 1.4957 4.2379 0 2.3308 0.4613 4.6991 1.0251 5.2629 1.4906 1.4907 4.909 11.745 4.9352 14.805 0.015 1.4396 0.6421 2.6175 1.3994 2.6175s1.8187 2.0116 2.3588 4.47c0.5399 2.4585 1.603 4.8541 2.3624 5.3233 0.7593 0.4694 1.3806 2.3841 1.3806 4.255 0 1.871 0.4613 3.8631 1.0251 4.4269 1.4906 1.4908 4.909 11.745 4.9353 14.805 0.015 1.4396 0.6955 2.6175 1.5183 2.6175 0.8226 0 1.4957 1.2428 1.4957 2.7616 0 2.5173 2.4863 8.8733 6.0791 15.541 0.7697 1.4284 1.3996 3.9127 1.3996 5.5206s0.6729 3.3395 1.4957 3.8479c0.8226 0.5084 1.4957 2.5674 1.4957 4.5754 0 2.0082 0.6731 3.651 1.4957 3.651s1.4957 2.0194 1.4957 4.4873 0.6731 4.4871 1.4957 4.4871c0.8227 0 1.4957 1.2198 1.4957 2.7106s1.2671 5.3609 2.8159 8.6003c1.5487 3.2395 3.2831 8.0698 3.8545 10.734 0.5711 2.6641 1.6597 5.2279 2.4191 5.6972 0.7593 0.4694 1.3806 2.4963 1.3806 4.5043 0 2.0081 0.6731 3.651 1.4957 3.651 0.8227 0 1.4959 1.643 1.4959 3.6511s0.6729 4.067 1.4957 4.5755c0.8226 0.5084 1.4957 2.24 1.4957 3.8479s0.604 4.0922 1.3421 5.5206c0.7383 1.4286 2.5015 5.6261 3.9184 9.3281 4.0105 10.478 5.4527 14.001 6.8797 16.807 0.7268 1.4285 1.3213 3.8179 1.3213 5.3098 0 1.492 0.556 3.3521 1.2357 4.1336 0.6796 0.7815 2.1118 4.4497 3.1827 8.1517 1.071 3.7019 3.5438 10.283 5.4951 14.624 1.9514 4.3414 3.548 8.8449 3.548 10.008 0 1.1629 0.6731 2.5303 1.4957 3.0388 0.8227 0.5085 1.4959 2.5277 1.4959 4.4871 0 1.9596 0.6729 3.9788 1.4957 4.4873 0.8225 0.5083 1.4957 2.5277 1.4957 4.4871 0 1.9596 0.6729 3.9788 1.4957 4.4873 0.8226 0.5083 1.4957 2.5674 1.4957 4.5754s0.5889 3.6511 1.3088 3.6511c0.7197 0 1.7117 2.0152 2.2044 4.4783 0.4926 2.4632 2.2594 7.3012 3.9262 10.751 1.667 3.4499 3.0307 7.4526 3.0307 8.8949 0 1.4422 0.6731 3.0381 1.4957 3.5466 0.8227 0.5085 1.4957 2.5674 1.4957 4.5754s0.6731 3.6511 1.4957 3.6511c0.8227 0 1.4959 1.125 1.4959 2.5002 0 2.5285 6.3599 19.99 9.0243 24.776 0.7952 1.4286 1.4456 3.9526 1.4456 5.6091 0 1.6564 0.6731 3.0117 1.4959 3.0117 0.8225 0 1.4957 1.6919 1.4957 3.7597s0.6729 5.0966 1.4957 6.7307c0.8226 1.6342 2.1688 4.3081 2.9914 5.9422 0.8227 1.6343 1.4957 3.8866 1.4957 5.0053 0 1.8932 2.8203 8.7655 6.0791 14.813 0.7698 1.4284 1.3996 3.625 1.3996 4.8814 0 1.2562 0.6731 3.6211 1.4957 5.2553 0.8227 1.6341 2.1688 4.3082 2.9914 5.9423 0.8227 1.6341 1.4958 4.663 1.4958 6.7308s0.673 3.7595 1.4958 3.7595c0.8225 0 1.4957 1.3553 1.4957 3.0118 0 1.6564 0.6297 4.1806 1.3994 5.609 3.558 6.6027 6.0791 13.011 6.0791 15.452 0 1.4704 0.6731 3.0894 1.4958 3.5979 0.8226 0.5085 1.4958 2.5674 1.4958 4.5754 0 2.0082 0.6729 3.651 1.4957 3.651 0.8225 0 1.4957 1.6431 1.4957 3.6511 0 2.0082 0.6731 4.0671 1.4957 4.5755 0.8227 0.5084 1.4957 2.5276 1.4957 4.4872 0 1.9595 0.5567 3.9069 1.2372 4.3274 0.6807 0.4206 2.4699 4.8354 3.9762 9.8106 1.5064 4.9752 3.3054 9.0458 3.9978 9.0458s1.2589 2.0192 1.2589 4.4871 0.6731 4.4871 1.4957 4.4871c0.8227 0 1.4957 1.6431 1.4957 3.6511 0 2.0081 0.6731 4.0671 1.4958 4.5755 0.8226 0.5084 1.4957 2.24 1.4957 3.8479s0.604 4.0922 1.3422 5.5207 2.5014 5.6261 3.9183 9.328c1.417 3.7019 3.1009 8.0768 3.742 9.7222 0.6411 1.6453 1.9746 5.3472 2.9633 8.2264 0.9887 2.8794 2.3349 6.5813 2.9915 8.2266 0.6565 1.6454 2.0028 5.3471 2.9914 8.2265 2.4513 7.1387 3.6581 10.261 6.5235 16.878 1.3481 3.1128 2.4509 6.9829 2.4509 8.6003 0 1.6175 0.6731 2.9407 1.4957 2.9407 0.8227 0 1.4957 1.643 1.4957 3.6511s0.6731 4.067 1.4958 4.5755c0.8226 0.5084 1.4957 2.5674 1.4957 4.5754 0 2.0081 0.673 3.6511 1.4957 3.6511 0.8226 0 1.4957 2.0192 1.4957 4.4871 0 2.4681 0.6002 4.4873 1.3336 4.4873 0.7335 0 1.7751 1.8509 2.3146 4.1132 0.5396 2.2623 1.331 5.2912 1.7587 6.7308 0.726 2.4439-1.7087 2.6175-36.716 2.6175-36.117 0-37.494-0.1073-37.494-2.9031 0-1.5969-0.6732-3.3192-1.4957-3.8277-0.8228-0.5085-1.4958-2.9039-1.4958-5.3233 0-2.4193-0.5092-4.3988-1.1316-4.3988-1.2403 0-4.8513-10.559-4.8513-14.186 0-1.2469-0.5982-2.2671-1.3293-2.2671-0.731 0-1.7713-2.3557-2.3114-5.2351-0.5402-2.8792-1.6246-5.235-2.4101-5.235-0.7853 0-1.4279-2.0192-1.4279-4.4871 0-2.4681-0.673-4.4873-1.4957-4.4873-0.8226 0-1.4957-1.6429-1.4957-3.651s-0.6731-4.067-1.4957-4.5755c-0.8228-0.5084-1.4957-2.5674-1.4957-4.5754 0-2.0081-0.6732-3.651-1.4957-3.651-0.8228 0-1.4959-1.915-1.4959-4.2553 0-2.3406-1.2308-5.3694-2.7353-6.7308-2.5169-2.278-18.988-2.4754-206.41-2.4754h-203.68v3.7392c0 2.0566-0.673 3.7393-1.4957 3.7393s-1.4957 1.3553-1.4957 3.0118-0.6298 4.1805-1.3995 5.6089c-3.5579 6.6028-6.0792 13.012-6.0792 15.453 0 1.4702-0.673 3.0893-1.4957 3.5977-0.8226 0.5084-1.4957 2.5673-1.4957 4.5754s-0.6731 3.651-1.4957 3.651c-0.8227 0-1.4958 2.0194-1.4958 4.4873s-0.5967 4.4871-1.3259 4.4871c-0.7293 0-1.676 1.851-2.1038 4.1132-0.839 4.4372-7.0192 20.874-8.9983 23.932-1.5345 2.3709-73.616 2.7299-75.072 0.3739zm484.65-154.43c-0.5246-2.6736-1.5071-6.2072-2.1834-7.8525-0.6762-1.6454-2.4003-6.0204-3.8312-9.7224-1.431-3.7019-3.1498-8.0768-3.8195-9.7221-0.6699-1.6454-2.0729-5.6838-3.1177-8.9744-1.045-3.2907-2.4357-6.6224-3.0905-7.4039-0.6547-0.7815-1.1903-2.9292-1.1903-4.7729 0-1.8435-0.6731-3.7678-1.4957-4.2761-0.8228-0.5085-1.4957-2.5674-1.4957-4.5756 0-2.008-0.5085-3.651-1.1298-3.651-1.2314 0-4.5964-8.7702-5.8823-15.331-0.4433-2.2624-1.4028-4.1133-2.132-4.1133-0.7294 0-1.326-1.643-1.326-3.651 0-2.0082-0.6731-4.0671-1.4957-4.5756-0.8228-0.5083-1.4957-2.5275-1.4957-4.4871s-0.6732-3.9788-1.4959-4.4871c-0.8226-0.5085-1.4957-2.5674-1.4957-4.5756 0-2.008-0.6196-3.651-1.3769-3.651s-1.8458-2.1874-2.4192-4.861c-0.5731-2.6737-2.3094-7.5117-3.8581-10.751-1.5488-3.2395-2.8159-7.0699-2.8159-8.5122 0-1.4422-0.673-3.0382-1.4957-3.5467-0.8226-0.5083-1.4957-2.5674-1.4957-4.5754s-0.6731-3.651-1.4957-3.651-1.4957-1.3146-1.4957-2.9211c0-2.7687-0.8626-5.322-5.3292-15.776-1.0545-2.4679-2.8064-7.3478-3.8932-10.844-1.0869-3.4963-2.4853-6.3568-3.1076-6.3568-0.6224 0-1.1315-1.692-1.1315-3.7596 0-2.0678-0.6731-5.0966-1.4959-6.7308-0.8226-1.6343-2.1687-4.3082-2.9914-5.9423-0.8226-1.6342-1.4957-3.9991-1.4957-5.2555 0-1.2562-0.6297-3.4528-1.3994-4.8814-3.4907-6.4779-6.0793-12.989-6.0793-15.291 0-1.3818-0.4613-2.9736-1.0251-3.5374-1.4906-1.4907-4.909-11.745-4.9352-14.805-0.015-1.4396-0.6956-2.6175-1.5182-2.6175-0.8228 0-1.4957-1.548-1.4957-3.4401 0-1.8922-0.5904-4.0797-1.3119-4.8612-0.7216-0.7815-2.4869-5.1228-3.9232-9.6473-1.4362-4.5247-3.2017-8.866-3.9233-9.6475-0.7214-0.7816-1.3117-2.9691-1.3117-4.8612 0-1.892-0.6731-3.4401-1.4959-3.4401-0.8226 0-1.4957-2.0192-1.4957-4.4871 0-2.4681-0.6729-4.4873-1.4957-4.4873-0.8226 0-1.4957-1.643-1.4957-3.651 0-2.0081-0.5568-3.9952-1.2372-4.4157-0.6805-0.4207-2.4698-4.8353-3.9762-9.8105-1.5063-4.9752-3.3054-9.0458-3.9978-9.0458-0.6923 0-1.2589-1.6919-1.2589-3.7597 0-2.0677-0.6731-5.0967-1.4957-6.7308s-2.1688-4.3081-2.9914-5.9422c-0.8227-1.6341-1.4957-3.9992-1.4957-5.2554 0-1.2563-0.604-3.4529-1.3423-4.8814-1.1673-2.2588-3.1792-7.2853-7.6249-19.05-0.6218-1.6454-1.8874-4.8741-2.8125-7.175-0.925-2.3012-1.682-5.4981-1.682-7.1048 0-1.6066-0.673-2.9211-1.4956-2.9211-0.8227 0-1.4958-1.3553-1.4958-3.0118 0-1.6563-0.6059-4.1804-1.3464-5.6089-3.1369-6.0508-9.1319-22.246-9.128-24.659 0-1.4397-0.6687-2.6175-1.4914-2.6175-0.8226 0-1.4957-1.643-1.4957-3.651 0-2.0082-0.6731-4.0671-1.4957-4.5755-0.8227-0.5084-1.4958-2.5276-1.4958-4.4872s-0.673-3.9788-1.4957-4.4871c-0.8226-0.5085-1.4957-2.5674-1.4957-4.5756 0-2.008-0.6196-3.6511-1.3769-3.6511s-1.8459-2.1873-2.4192-4.861c-0.5733-2.6736-2.3094-7.5116-3.8581-10.751-1.5488-3.2395-2.8159-7.0699-2.8159-8.5122s-0.6731-3.0382-1.4957-3.5467c-0.8227-0.5083-1.4957-2.5672-1.4957-4.5754 0-2.008-0.6731-3.6511-1.4958-3.6511-0.8226 0-1.4957-1.0096-1.4957-2.2436 0-1.2339-0.6731-2.2435-1.4957-2.2435-0.8227 0-1.4958 1.6828-1.4958 3.7394s-0.673 3.7392-1.4957 3.7392c-0.8226 0-1.4957 1.2176-1.4957 2.7056 0 1.4881-0.9882 4.0121-2.196 5.609-1.2078 1.5968-2.2175 4.3781-2.2436 6.1805-0.026 1.8023-0.5874 3.6108-1.2471 4.0185-0.6598 0.4076-2.1392 4.1921-3.2877 8.4095-1.1484 4.2175-2.6279 8.0018-3.2876 8.4095-0.6598 0.4078-1.1996 2.0569-1.1996 3.6649 0 1.6079-0.6297 4.0922-1.3995 5.5207-3.5579 6.6026-6.0791 13.011-6.0791 15.452 0 1.4704-0.6731 3.0894-1.4957 3.5979-0.8227 0.5083-1.4957 2.5674-1.4957 4.5754s-0.6731 3.651-1.4958 3.651c-0.8226 0-1.4957 1.643-1.4957 3.6511 0 2.008-0.6731 4.067-1.4957 4.5754-0.8227 0.5085-1.4957 2.5277-1.4957 4.4872s-0.5568 3.9068-1.2373 4.3274c-0.6805 0.4207-2.4698 4.8353-3.9762 9.8105-1.5063 4.9752-3.3053 9.0458-3.9977 9.0458s-1.2589 1.643-1.2589 3.6511-0.6731 4.067-1.4957 4.5754c-0.8227 0.5085-1.4958 2.5674-1.4958 4.5755s-0.6731 3.6511-1.4957 3.6511c-0.8227 0-1.4957 1.3232-1.4957 2.9407 0 1.6174-0.9561 5.151-2.1247 7.8525-1.1685 2.7016-3.5781 8.9504-5.3545 13.886-1.7765 4.9359-3.8493 10.143-4.6062 11.572s-1.3762 3.8179-1.3762 5.3099c0 1.4919-0.5356 3.352-1.1904 4.1335-0.6547 0.7815-2.0566 4.1132-3.1154 7.4038-2.1459 6.6692-5.5688 15.102-7.7324 19.05-0.7828 1.4286-1.4233 3.8404-1.4233 5.3597s-0.4613 3.2238-1.0251 3.7877c-1.4907 1.4906-4.909 11.744-4.9353 14.805-0.012 1.4396-0.5486 2.6176-1.1917 2.6176s-2.0339 2.9285-3.0908 6.5078c-1.0568 3.5793-2.74 8.1227-3.7404 10.096-1.0003 1.9736-2.7554 6.617-3.9001 10.319-1.1446 3.7019-2.6373 7.3701-3.3169 8.1516-0.6796 0.7817-1.2356 2.9294-1.2356 4.7729s-0.6731 3.7678-1.4957 4.2763c-0.8227 0.5085-1.4958 2.1045-1.4958 3.5467s-1.3024 5.3181-2.8944 8.613c-1.5919 3.2948-3.3492 7.8026-3.905 10.017-0.5558 2.2145-1.6091 4.3964-2.3406 4.8486-0.7315 0.4521-1.3301 2.4251-1.3301 4.3847s-0.673 3.9788-1.4957 4.4871c-0.8226 0.5085-1.4957 2.5674-1.4957 4.5756 0 2.008-0.6731 3.651-1.4957 3.651-0.8227 0-1.5055 1.1778-1.5175 2.6176-0.027 3.2745-3.6637 13.816-7.518 21.794-1.6117 3.3357-2.9303 7.2848-2.9303 8.7756s-0.6731 2.7105-1.4958 2.7105c-0.8226 0-1.4957 2.0193-1.4957 4.4872 0 2.468-0.6731 4.4872-1.4957 4.4872-0.8227 0-1.4957 1.6429-1.4957 3.6511 0 2.008-0.6731 4.0669-1.4958 4.5754-0.8226 0.5085-1.4957 2.1274-1.4957 3.5978 0 2.441-2.5212 8.8496-6.0791 15.452-0.7698 1.4284-1.3995 3.6251-1.3995 4.8814 0 1.2562-0.7782 3.7895-1.7293 5.6293-3.6316 7.0251-4.2536 8.6079-4.2536 10.824 0 1.2562-0.604 3.4528-1.3422 4.8814-1.31 2.5349-2.2851 5.0728-9.0428 23.537-1.8064 4.936-3.9108 10.143-4.6762 11.572-0.7655 1.4284-1.3918 3.6249-1.3918 4.8814 0 1.2562-0.6165 3.4528-1.37 4.8813-3.4506 6.5416-6.1087 13.79-6.1087 16.659v3.1393h353.23zm-262.53-62.358c0-1.5967 0.6731-3.3191 1.4958-3.8276 0.8226-0.5083 1.4957-2.5275 1.4957-4.4871s0.6731-3.9788 1.4957-4.4871c0.8227-0.5085 1.4957-2.5674 1.4957-4.5756 0-2.008 0.6731-3.651 1.4958-3.651 0.8226 0 1.4957-1.2692 1.4957-2.8205 0-1.5512 1.0055-4.7484 2.2344-7.1047s2.2385-5.4621 2.2435-6.9017c0-1.4397 0.5185-2.6175 1.1408-2.6175 1.2403 0 4.8514-10.559 4.8514-14.186 0-1.2469 0.6731-2.267 1.4957-2.267 0.8227 0 1.4957-2.0193 1.4957-4.4872 0-2.468 0.6731-4.4872 1.4958-4.4872 0.8226 0 1.4957-1.6429 1.4957-3.6511 0-2.008 0.5568-3.995 1.2373-4.4157 0.6805-0.4206 2.4697-4.8352 3.9761-9.8104s3.3054-9.0458 3.9978-9.0458 1.2589-1.6431 1.2589-3.6511 0.673-4.0671 1.4957-4.5754c0.8226-0.5085 1.4957-2.5674 1.4957-4.5756 0-2.008 0.6731-3.651 1.4958-3.651 0.8226 0 1.4957-1.548 1.4957-3.4401 0-1.8922 0.5752-4.0797 1.2783-4.8612 0.703-0.7815 3.2162-7.142 5.5848-14.135 2.3687-6.9924 4.8223-12.938 5.4525-13.212 0.6303-0.2741 1.1459-2.4616 1.1459-4.861s0.6731-4.3626 1.4957-4.3626c0.8227 0 1.4958-1.6429 1.4958-3.6511 0-2.008 0.673-4.0669 1.4957-4.5754 0.8226-0.5085 1.4957-2.5277 1.4957-4.4871 0-1.9596 0.6213-3.9467 1.3807-4.4161 0.7593-0.4693 1.8224-2.8648 2.3624-5.3234 0.54-2.4584 1.6014-4.4699 2.3587-4.4699s1.3768-1.0202 1.3768-2.2671c0-3.6268 3.6111-14.186 4.8514-14.186 0.6224 0 1.1316-2.0192 1.1316-4.4871s0.673-4.4871 1.4957-4.4871c0.8226 0 1.4957-1.3495 1.4957-2.999 0-1.6493 1.6827-6.4867 3.7393-10.75 2.0566-4.2631 3.7617-9.1396 3.7891-10.837 0.048-2.971 0.1589-2.9545 2.9915 0.4456 1.6179 1.9421 2.9417 5.1393 2.9417 7.1047 0 1.9655 0.673 3.5736 1.4957 3.5736 0.8226 0 1.4957 1.5481 1.4957 3.4403 0 1.8921 0.5903 4.0795 1.3119 4.861 0.7215 0.7816 2.4869 5.123 3.9231 9.6475 1.4363 4.5245 3.2017 8.8658 3.9232 9.6475 0.7216 0.7815 1.3119 2.9689 1.3119 4.861s0.6731 3.4403 1.4957 3.4403c0.8227 0 1.4957 2.0192 1.4957 4.4871s0.6731 4.4871 1.4958 4.4871c0.8226 0 1.4957 1.643 1.4957 3.651 0 2.0082 0.6731 4.0671 1.4957 4.5756 0.8227 0.5083 1.4958 2.24 1.4958 3.8479s0.6404 4.0922 1.4232 5.5206c5.1846 9.461 6.3464 13.739 4.3357 15.964-4.5333 5.0163-5.7589 6.7738-5.7589 8.2583 0 0.8574-0.6731 1.5589-1.4958 1.5589-0.8226 0-1.4957 1.3462-1.4957 2.9915 0 1.6452-0.5593 2.9915-1.243 2.9915-0.6836 0-2.198 1.8481-3.3654 4.1068-1.1673 2.2588-4.9829 8.242-8.4792 13.296s-6.3568 9.8806-6.3568 10.726c0 0.8452-0.5298 1.761-1.1773 2.0352s-3.1242 3.8537-5.5038 7.9542c-2.3796 4.1007-5.5518 8.771-7.0493 10.378-1.4974 1.6073-2.7226 3.8051-2.7226 4.884s-0.5088 1.9615-1.1306 1.9615c-0.6219 0-2.0949 2.1876-3.2735 4.8612-1.1785 2.6735-2.8573 5.679-3.7305 6.6788-4.3814 5.0163-5.327 6.4082-5.327 7.8414 0 0.8574-0.6731 1.5588-1.4957 1.5588-0.8227 0-1.4957 0.8827-1.4957 1.9616 0 1.0787-1.3462 3.4064-2.9915 5.1725-1.6453 1.766-2.9914 4.2486-2.9914 5.517 0 1.2683-0.5671 2.3061-1.2602 2.3061s-2.5289 2.3559-4.0795 5.2351c-1.5506 2.8793-3.175 5.235-3.6097 5.235-0.4348 0-1.7422 2.1876-2.9054 4.8612-1.1633 2.6736-2.541 5.1976-3.0616 5.6089-0.5207 0.4113-2.4915 3.2898-4.3796 6.3966-5.8795 9.6742-6.6566 10.056-20.448 10.056-11.482 0-12.607-0.2591-12.607-2.9033zm-79.274 217.33c0-0.5905 1.4662-4.3178 3.2581-8.2826l3.2581-7.209h13.195c14.193 0 15.183 0.6795 11.467 7.8728-0.9505 1.8398-2.1997 4.3546-2.7759 5.5887-0.7958 1.704-4.3366 2.3469-14.725 2.6736-7.5224 0.2365-13.677-0.054-13.677-0.6435zm541.45-0.6824c0-1.6048-3.372-9.9746-6.1087-15.163-0.7536-1.4286-1.37-3.6251-1.37-4.8814 0-1.2564-0.6371-3.453-1.4157-4.8815-0.7785-1.4284-3.1569-7.3087-5.285-13.067-2.1282-5.7585-4.5199-11.639-5.315-13.067-0.7952-1.4285-1.4458-3.9525-1.4458-5.609s-0.6731-3.0118-1.4957-3.0118c-0.8227 0-1.4958-1.3143-1.4958-2.921 0-1.6066-0.7569-4.8037-1.682-7.1047-2.0129-5.0071-2.8045-7.0376-8.044-20.637-2.2187-5.7586-4.64-11.639-5.3806-13.067-0.7405-1.4285-1.3464-3.6251-1.3464-4.8814 0-1.2564-0.7781-3.7894-1.7293-5.6293-3.608-6.9795-4.2536-8.6008-4.2536-10.682 0-1.1784-0.9641-4.0481-2.1425-6.3771-3.2451-6.4135-8.3276-20.074-8.3276-22.383 0-1.1243-0.673-2.0441-1.4957-2.0441-0.8226 0-1.4957-1.3145-1.4957-2.921 0-2.937-1.0195-5.8313-6.2542-17.755-1.5615-3.5567-3.233-8.4366-3.7144-10.844-0.4815-2.4074-1.4644-4.3771-2.1843-4.3771-0.7197 0-1.3087-1.643-1.3087-3.651 0-2.0082-0.6731-4.0671-1.4957-4.5756-0.8227-0.5083-1.4957-2.5674-1.4957-4.5754s-0.6731-3.6511-1.4957-3.6511c-0.8227 0-1.4958-1.643-1.4958-3.651s-0.673-4.0671-1.4957-4.5754c-0.8226-0.5085-1.4957-2.5674-1.4957-4.5754 0-2.0082-0.5982-3.6511-1.3293-3.6511-0.731 0-1.7711-2.3558-2.3114-5.235-0.5402-2.8794-1.6246-5.2351-2.4101-5.2351-0.7853 0-1.4279-1.643-1.4279-3.651 0-2.0082-0.673-4.0671-1.4957-4.5756-0.8226-0.5083-1.4957-2.2399-1.4957-3.8479 0-1.6079-0.673-4.2604-1.4957-5.8945-0.8226-1.6341-2.1689-4.3082-2.9915-5.9423-0.8227-1.6342-1.4957-3.8866-1.4957-5.0053 0-1.8932-2.8203-8.7653-6.0791-14.813-0.7698-1.4286-1.3995-3.9526-1.3995-5.609 0-1.6565-0.6732-3.0118-1.4957-3.0118-0.8228 0-1.4958-1.643-1.4958-3.651s-0.6731-4.0671-1.4957-4.5754c-0.8227-0.5085-1.4958-2.5674-1.4958-4.5756 0-2.008-0.673-3.651-1.4957-3.651-0.8226 0-1.4957-1.3553-1.4957-3.0117 0-1.6565-0.6506-4.1805-1.4458-5.6091-2.6642-4.7863-9.0243-22.248-9.0243-24.776 0-1.3752-0.5091-2.5002-1.1315-2.5002-1.2403 0-4.8513-10.559-4.8513-14.186 0-1.2469-0.6732-2.267-1.4958-2.267-0.8227 0-1.4958-1.3553-1.4958-3.0118 0-1.6566-0.6405-4.1806-1.4232-5.609-0.7827-1.4285-2.522-5.2896-3.8651-8.5801-1.343-3.2906-3.0582-7.1517-3.8118-8.5803-0.7535-1.4284-1.3699-3.8178-1.3699-5.3097 0-1.492-0.5357-3.3521-1.1905-4.1336-0.6547-0.7815-2.0566-4.1132-3.1154-7.4039-1.719-5.3423-3.3815-9.5612-7.6623-19.444-0.7125-1.6453-2.1506-5.6839-3.1956-8.9744-1.0449-3.2906-2.4356-6.6223-3.0903-7.4039-0.6547-0.7815-1.1903-2.6415-1.1903-4.1336 0-1.4918-0.6371-3.8813-1.4157-5.3097-0.7786-1.4285-3.1699-7.3088-5.3139-13.067-4.1806-11.23-6.3035-16.42-8.4023-20.546-0.7266-1.4285-1.3212-3.9525-1.3212-5.6089 0-1.6565-0.673-3.0118-1.4957-3.0118-0.8226 0-1.4957-1.125-1.4957-2.5003 0-2.5283-6.3601-19.99-9.0244-24.776-0.7951-1.4285-1.4457-3.9525-1.4457-5.6091 0-1.6563-0.6731-3.0116-1.4957-3.0116-0.8228 0-1.4957-1.643-1.4957-3.651 0-2.0082-0.6732-4.0671-1.4957-4.5756-0.8228-0.5083-1.4957-2.5673-1.4957-4.5754s-0.6732-3.6511-1.4959-3.6511c-0.8226 0-1.4957-1.3494-1.4957-2.9987 0-1.6494-1.6827-6.4869-3.7393-10.75-2.0567-4.2631-3.7392-8.9316-3.7392-10.374s-0.6732-3.0392-1.4959-3.5477c-0.8226-0.5083-1.4957-2.5674-1.4957-4.5754 0-2.0081-0.673-3.6511-1.4957-3.6511-0.8226 0-1.4957-1.643-1.4957-3.651s-0.6731-4.0671-1.4957-4.5754c-0.8228-0.5085-1.4957-2.5674-1.4957-4.5756 0-2.008-0.6196-3.6511-1.3769-3.6511s-1.8187-2.0113-2.3586-4.4699c-0.5401-2.4586-1.6032-4.854-2.3625-5.3233-0.7594-0.4693-1.3807-2.4566-1.3807-4.416 0-1.9596-0.6731-3.9788-1.4957-4.4873-0.8226-0.5083-1.4957-2.5674-1.4957-4.5754s-0.6731-3.6511-1.4957-3.6511c-0.8228 0-1.4957-1.643-1.4957-3.651s-0.6732-4.0671-1.4959-4.5754c-0.8226-0.5085-1.4957-2.1045-1.4957-3.5467s-1.3024-5.3181-2.8944-8.613c-1.5919-3.2948-3.3492-7.8026-3.905-10.017-0.5559-2.2147-1.609-4.3964-2.3405-4.8486-0.7316-0.4521-1.3302-2.465-1.3302-4.473s-0.673-3.6511-1.4957-3.6511c-0.8226 0-1.4957-2.0192-1.4957-4.4871 0-2.468-0.5093-4.4872-1.1315-4.4872-1.2403 0-4.8513-10.559-4.8513-14.186 0-1.2469-0.6196-2.2671-1.3769-2.2671s-1.8187-2.0115-2.3588-4.4701c-0.5399-2.4584-1.603-4.8539-2.3624-5.3233-0.7593-0.4692-1.3806-2.1688-1.3806-3.7768 0-1.6079-0.6731-4.2603-1.4957-5.8945-0.8228-1.6341-2.1688-4.3082-2.9916-5.9423-0.8226-1.6342-1.4957-3.9991-1.4957-5.2553 0-1.2564-0.6195-3.453-1.3767-4.8816-0.7573-1.4284-3.1802-7.3086-5.3844-13.067-2.2041-5.7585-4.6134-11.639-5.354-13.067-0.7404-1.4284-1.3464-3.625-1.3464-4.8814 0-1.2562-0.6731-3.6211-1.4957-5.2553-0.8226-1.6341-2.1688-4.3082-2.9914-5.9423-0.8228-1.6341-1.4957-3.9354-1.4957-5.1138 0-1.1785-0.9642-4.0482-2.1426-6.3771-4.0538-8.0117-8.2981-20.273-7.4773-21.601 0.9197-1.4883 23.01-1.8377 26.698-0.4223 1.3012 0.4993 2.3658 2.1423 2.3658 3.651 0 1.5088 0.6731 3.1591 1.4957 3.6676 0.8228 0.5085 1.4959 2.5277 1.4959 4.4871 0 1.9596 0.6729 3.9788 1.4957 4.4873 0.8226 0.5083 1.4957 1.8975 1.4957 3.0871 0 1.1894 1.6827 5.6506 3.7393 9.9138 2.0566 4.2631 3.7394 8.644 3.7394 9.7352 0 1.0911 0.6729 3.321 1.4957 4.9551 0.8226 1.6341 2.1688 4.3082 2.9914 5.9423 0.8226 1.6342 1.4957 3.9991 1.4957 5.2553 0 1.2563 0.6371 3.453 1.4157 4.8814 1.8607 3.4139 8.3042 20.355 10.801 28.398 1.0853 3.4964 2.4825 6.3569 3.1048 6.3569 0.6224 0 1.1317 1.643 1.1317 3.651 0 2.0082 0.6729 4.0671 1.4957 4.5756 0.8226 0.5083 1.4957 2.2399 1.4957 3.8479 0 1.6079 0.6124 4.0922 1.3611 5.5206 2.95 5.6296 9.109 21.61 9.109 23.636 0 1.1798 0.6729 2.145 1.4957 2.145 0.8226 0 1.4957 2.0192 1.4957 4.4872 0 2.4679 0.6731 4.4871 1.4957 4.4871 0.8227 0 1.4957 1.6431 1.4957 3.6511s0.6731 4.0671 1.4957 4.5754c0.8227 0.5085 1.4959 2.5674 1.4959 4.5756 0 2.008 0.5981 3.651 1.3292 3.651s1.7712 2.3557 2.3114 5.2349c0.54 2.8794 1.6246 5.2351 2.4099 5.2351 0.7854 0 1.428 1.0203 1.428 2.2672 0 3.6268 3.611 14.186 4.8513 14.186 0.6224 0 1.1317 2.0192 1.1317 4.4871 0 2.4681 0.6729 4.4873 1.4957 4.4873 0.8226 0 1.4957 1.3729 1.4957 3.0511 0 1.6779 1.2641 5.5482 2.809 8.6003 1.5449 3.0523 3.281 7.737 3.8581 10.411 0.577 2.6735 1.6688 4.861 2.4261 4.861s1.3769 1.6431 1.3769 3.6511c0 2.0081 0.6731 4.0671 1.4957 4.5754 0.8227 0.5085 1.4957 2.2401 1.4957 3.848 0 1.6078 0.5946 4.0922 1.3212 5.5207 4.198 8.2525 12.14 29.354 12.14 32.255 0 1.3751 0.6731 2.5001 1.4959 2.5001 0.8225 0 1.4957 1.643 1.4957 3.651 0 2.0081 0.6729 4.0671 1.4957 4.5755 0.8226 0.5084 1.4957 2.5674 1.4957 4.5754 0 2.0082 0.6731 3.651 1.4957 3.651 0.8227 0 1.4957 1.2693 1.4957 2.8205 0 1.5514 1.0055 4.7485 2.2344 7.1048 1.2288 2.3563 2.2386 5.4621 2.2437 6.9017 0 1.4396 0.5183 2.6175 1.1406 2.6175 1.2403 0 4.8514 10.559 4.8514 14.186 0 1.2469 0.6731 2.2673 1.4957 2.2673 0.8227 0 1.4958 1.6429 1.4958 3.651 0 2.008 0.673 4.067 1.4958 4.5754 0.8225 0.5085 1.4957 2.5674 1.4957 4.5755s0.6729 3.651 1.4957 3.651c0.8225 0 1.4957 1.2175 1.4957 2.7057 0 1.488 0.9881 4.012 2.1959 5.6089s2.2175 4.3781 2.2437 6.1804c0.026 1.8025 0.7206 3.6932 1.5433 4.2016 0.8226 0.5084 1.4958 2.5673 1.4958 4.5755 0 2.008 0.6729 3.6511 1.4957 3.6511 0.8225 0 1.4957 2.0192 1.4957 4.4871s0.6731 4.4871 1.4957 4.4871c0.8227 0 1.4957 0.9199 1.4957 2.0442 0 2.3086 5.0825 15.969 8.3276 22.383 1.1784 2.3289 2.1425 5.4863 2.1425 7.0163 0 1.5301 0.6731 3.1979 1.4957 3.7064 0.8227 0.5085 1.4957 2.24 1.4957 3.8479s0.5946 4.0922 1.3212 5.5208c1.5152 2.9784 2.7407 5.9955 8.3453 20.546 2.2182 5.7586 4.6525 11.639 5.4098 13.067 0.7571 1.4286 1.3768 3.6252 1.3768 4.8814 0 1.2564 0.6731 3.6213 1.4957 5.2555 0.8227 1.6341 2.1688 4.3082 2.9914 5.9423 0.8227 1.6342 1.4957 3.999 1.4957 5.2553s0.6404 3.453 1.4233 4.8814c2.1636 3.9483 5.5866 12.381 7.7324 19.05 1.0588 3.2906 2.4607 6.6224 3.1154 7.4039 0.6548 0.7815 1.1905 2.6416 1.1905 4.1334 0 1.4921 0.6164 3.8815 1.37 5.3099 2.1532 4.0821 5.6715 12.706 6.8565 16.807 1.185 4.1004 4.7033 12.724 6.8565 16.807 0.7536 1.4284 1.37 3.6251 1.37 4.8814 0 1.2562 0.6371 3.453 1.4156 4.8814 0.7786 1.4285 3.157 7.3088 5.2851 13.067 2.1282 5.7585 4.52 11.639 5.3152 13.067 0.7951 1.4286 1.4456 3.9526 1.4456 5.6089 0 1.6565 0.6731 3.0118 1.4958 3.0118 0.8226 0 1.4957 1.3145 1.4957 2.9211 0 1.6067 0.7568 4.8038 1.682 7.1048 2.0129 5.0071 2.8045 7.0376 8.044 20.636 2.2187 5.7585 4.64 11.639 5.3806 13.067 0.7405 1.4284 1.3463 3.6251 1.3463 4.8814 0 2.2159 0.6221 3.7986 4.2537 10.824 0.951 1.8399 1.7293 4.5658 1.7293 6.0576 0 1.4921 0.5514 3.3522 1.2255 4.1337 0.674 0.7815 3.0725 6.4689 5.3301 12.639 2.2575 6.1698 4.735 12.387 5.5053 13.815s1.4006 3.6252 1.4006 4.8814c0 1.2563 0.6164 3.4529 1.37 4.8814 2.5526 4.8393 5.868 13.041 7.8525 19.424 1.0868 3.4964 2.4852 6.3569 3.1076 6.3569 0.6222 0 1.1314 1.643 1.1314 3.651 0 2.0081 0.6732 4.0671 1.4957 4.5755 0.8228 0.5084 1.4957 2.4328 1.4957 4.2763s0.5358 3.9914 1.1905 4.7729c0.6548 0.7815 2.0567 4.1132 3.1155 7.4038 2.1458 6.669 5.5687 15.102 7.7324 19.05 0.7828 1.4284 1.4233 3.9525 1.4233 5.609s0.673 3.0118 1.4957 3.0118c0.8226 0 1.4957 1.6428 1.4957 3.651 0 2.008 0.6731 4.067 1.4957 4.5754 0.8226 0.5085 1.4957 1.8943 1.4957 3.0797 0 1.7254-2.8346 2.1554-14.209 2.1554-9.328 0-14.209-0.5646-14.209-1.6437zm394.87-399.17c0-372.02 0.1793-401.06 2.4798-401.94 3.0645-1.1761 38.687 1.8717 74.55 6.3785 4.1132 0.5169 8.1179 1.5476 8.8995 2.2905 0.7815 0.7429 3.6105 1.3507 6.2864 1.3507 2.6761 0 6.4116 0.6054 8.3013 1.345 1.8896 0.7398 7.8108 2.5363 13.158 3.9921 5.3473 1.456 10.362 3.2065 11.143 3.8902 0.7816 0.6836 2.9294 1.2428 4.7729 1.2428s3.7679 0.6731 4.2763 1.4957c0.5084 0.8227 2.24 1.4959 3.8479 1.4959s4.2604 0.6729 5.8945 1.4957c1.6342 0.8225 4.3083 2.1688 5.9424 2.9914s3.99 1.4957 5.235 1.4957c1.2453 0 2.2639 0.6731 2.2639 1.4957 0 0.8227 0.6813 1.4957 1.514 1.4957 1.6864 0 24.232 10.551 25.409 11.891 0.4113 0.4683 3.2718 2.1759 6.3569 3.7947 3.0849 1.6188 5.6089 3.3377 5.6089 3.8198 0 0.4819 2.3557 1.8007 5.235 2.9304 2.8792 1.1298 5.2351 2.6016 5.2351 3.2707s0.7211 1.2166 1.6025 1.2166c0.8815 0 2.5408 0.8412 3.6874 1.8695 3.1737 2.8461 5.4161 4.5194 11.527 8.6005 3.0792 2.0567 5.6032 4.2442 5.6089 4.8611 0 0.617 0.7012 1.1218 1.5458 1.1218 1.3188 0 7.5002 5.0203 14.273 11.592 1.0598 1.0283 2.3645 1.8696 2.8993 1.8696 1.4513 0 40.913 40.424 44.534 45.62 1.72 2.4679 4.8529 6.5787 6.9619 9.1347 7.8593 9.5257 9.0698 11.11 9.0698 11.876 0 0.4314 1.3703 2.2746 3.0452 4.0962 3.9818 4.3305 10.416 14.271 10.416 16.092 0 0.7861 0.5593 1.4292 1.2429 1.4292 0.6837 0 2.1845 1.851 3.3351 4.1133 1.1506 2.2622 3.5528 6.1325 5.3382 8.6004 4.7956 6.6291 9.5283 15.505 9.5283 17.87 0 1.1405 0.5048 2.2979 1.1218 2.5722 0.617 0.2741 3.141 4.5369 5.6089 9.4729 2.4679 4.9358 4.852 9.3108 5.2978 9.7221 0.4457 0.4113 1.7408 3.7768 2.8776 7.4787 1.1369 3.702 2.6231 7.3702 3.3026 8.1517 0.6796 0.7815 1.2357 2.6325 1.2357 4.1132 0 1.4808 0.673 2.6923 1.4957 2.6923 0.8226 0 1.4958 1.2693 1.4958 2.8205 0 1.5514 1.0054 4.7485 2.2342 7.1048 1.229 2.3563 2.2386 5.4621 2.2437 6.9017 0 1.4396 0.6823 2.6175 1.5049 2.6175 0.8227 0 1.4958 1.9795 1.4958 4.399 0 2.4193 0.673 4.8148 1.4957 5.3232 0.8226 0.5085 1.4957 2.8642 1.4957 5.235 0 2.3709 0.6732 4.7267 1.4958 5.2351 0.8225 0.5085 1.4957 3.5373 1.4957 6.7307 0 3.1936 0.6731 6.2224 1.4957 6.7309 0.8227 0.5084 1.4957 3.2847 1.4957 6.1694 0 2.8849 0.6547 6.4685 1.4549 7.9636 1.7539 3.2773 5.1 29.911 7.6677 61.032 1.5023 18.207 1.5092 26.968 0.035 43.376-2.9383 32.692-6.2188 57.836-7.747 59.376-0.7755 0.7815-1.4102 3.9389-1.4102 7.0163 0 3.0776-0.6729 6.0115-1.4957 6.52-0.8226 0.5083-1.4957 3.9135-1.4957 7.5668 0 3.6535-0.6731 6.6426-1.4957 6.6426s-1.4957 1.9795-1.4957 4.3989-0.6731 4.8148-1.4957 5.3233c-0.8227 0.5085-1.4957 2.5764-1.4957 4.5958 0 2.0192-0.604 4.84-1.3423 6.2686-0.7381 1.4284-2.5014 5.6259-3.9183 9.3279-4.2928 11.216-4.7959 12.453-8.0519 19.802-1.7273 3.8986-3.1406 7.9707-3.1406 9.0492 0 1.0784-0.6086 2.6002-1.3525 3.3817-2.3698 2.4895-12.109 21.777-12.109 23.981 0 1.1657-0.6731 2.1195-1.4957 2.1195-0.8227 0-1.4957 0.6874-1.4957 1.5278 0 1.8157-7.735 13.959-9.3484 14.676-0.6169 0.2742-1.1217 1.452-1.1217 2.6175 0 1.1653-0.6731 2.119-1.4957 2.119-0.8227 0-1.4958 1.29-1.4958 2.8668 0 1.5766-0.5688 3.091-1.2641 3.3653-0.6952 0.2742-4.5184 5.2102-8.4958 10.969-3.9774 5.7586-7.6191 10.807-8.0927 11.218-0.4735 0.4113-2.8418 3.4401-5.2628 6.7308-2.421 3.2906-5.4533 6.9926-6.7387 8.2264-1.2854 1.2341-4.1003 4.6176-6.2554 7.5189-2.155 2.9014-7.3638 8.7942-11.575 13.095-4.2114 4.301-7.6571 8.4897-7.6571 9.3081 0 0.8186-0.5048 1.4986-1.1217 1.5114-0.617 0.015-4.8238 3.4433-9.3484 7.6235s-10.546 9.3862-13.381 11.569-7.7422 6.4924-10.904 9.5773c-3.1624 3.0849-6.3649 5.6089-7.117 5.6089-0.752 0-2.9518 1.5144-4.8886 3.3655-1.9367 1.8509-4.5459 4.0384-5.7982 4.8611-1.2523 0.8226-6.0602 4.0197-10.684 7.1047-4.624 3.0849-9.1126 5.6089-9.9749 5.6089-0.8621 0-1.5675 0.5088-1.5675 1.1307 0 0.6218-2.1875 2.0822-4.8611 3.2454-2.6736 1.1634-5.1977 2.5211-5.6089 3.0174-1.7372 2.0955-9.0466 6.068-11.166 6.068-1.2628 0-2.2962 0.6731-2.2962 1.4959 0 0.8226-1.0187 1.4957-2.2639 1.4957-1.245 0-3.4326 0.6164-4.861 1.37-1.4285 0.7534-5.2896 2.5248-8.5801 3.9362-3.2906 1.4113-8.6335 3.8236-11.873 5.3607-3.2394 1.5369-7.0698 2.7946-8.5122 2.7946-1.4422 0-3.0382 0.6731-3.5467 1.4957-0.5083 0.8227-2.9038 1.4957-5.3231 1.4957-2.4195 0-4.399 0.6731-4.399 1.4957 0 0.8227-2.0192 1.4959-4.4871 1.4959-2.4681 0-4.4873 0.6729-4.4873 1.4957 0 0.8226-2.5576 1.4957-5.6838 1.4957-3.126 0-6.3231 0.5966-7.1046 1.326-0.7815 0.7292-6.1326 2.1662-11.891 3.1931-5.7585 1.027-13.499 2.4679-17.201 3.2021-10.006 1.9844-34.42 4.3519-53.472 5.1853l-16.827 0.736zm80.022 320.04c0.5083-0.8228 3.2403-1.4957 6.0711-1.4957 2.8307 0 5.1467-0.6731 5.1467-1.4959 0-0.8226 2.3559-1.4957 5.2351-1.4957 2.8793 0 5.235-0.673 5.235-1.4957 0-0.8226 1.6431-1.4957 3.6511-1.4957 2.0081 0 4.0671-0.6731 4.5755-1.4957 0.5084-0.8227 2.5673-1.4957 4.5755-1.4957 2.008 0 3.651-0.6731 3.651-1.4957 0-0.8228 1.2175-1.4959 2.7055-1.4959 1.4881 0 4.0122-0.9881 5.609-2.1959 1.5968-1.2079 4.0813-2.2175 5.5209-2.2437 1.4398-0.026 2.6175-0.7206 2.6175-1.5432s1.3066-1.4957 2.9033-1.4957 3.3191-0.6731 3.8275-1.4957c0.5085-0.8227 2.1748-1.4957 3.703-1.4957s3.0029-0.5048 3.2771-1.1218c0.717-1.6135 12.86-9.3483 14.676-9.3483 0.8402 0 1.5277-0.6731 1.5277-1.4959 0-0.8226 1.1975-1.4957 2.6612-1.4957s3.6316-1.3461 4.8175-2.9914c1.1857-1.6453 2.7795-2.9914 3.5414-2.9914 0.7621 0 4.2604-2.3558 7.7741-5.235 3.5138-2.8794 6.7686-5.2351 7.233-5.2351 2.7228 0 48.759-45.974 48.759-48.693 0-0.438 1.7321-2.6177 3.8489-4.8442 2.117-2.2263 5.948-7.0767 8.5134-10.779 2.5655-3.7019 5.2083-6.9551 5.8733-7.2292 0.6648-0.2743 1.2087-1.1226 1.2087-1.8851s2.4779-4.9116 5.5062-9.2201c3.0284-4.3084 8.4943-13.556 12.147-20.551 3.6522-6.9945 7.2321-13.357 7.9554-14.138 0.7232-0.7817 1.315-2.6326 1.315-4.1134 0-1.4807 0.6731-2.6922 1.4957-2.6922s1.4957-1.3462 1.4957-2.9915c0-1.6454 0.6731-2.9915 1.4957-2.9915 0.8227 0 1.4957-1.3063 1.4957-2.9031s0.6731-3.3191 1.4959-3.8276c0.8225-0.5085 1.4957-2.1049 1.4957-3.5477 0-1.4427 1.6825-6.1113 3.7393-10.374 2.0566-4.2631 3.7392-9.061 3.7392-10.662 0-1.6008 0.6731-3.3265 1.4957-3.835 0.8227-0.5083 1.4959-2.8642 1.4959-5.235 0-2.3707 0.6729-4.7266 1.4957-5.2351 0.8225-0.5083 1.4957-3.1057 1.4957-5.772 0-2.6661 0.6078-5.4869 1.3507-6.2684 0.7428-0.7817 1.6787-4.4499 2.0796-8.1518 0.4008-3.702 1.4265-9.4231 2.2792-12.714 2.1165-8.168 4.7673-41.115 4.7299-58.789-0.038-18.295-3.7939-57.584-5.8754-61.473-0.8649-1.6162-1.5726-5.6355-1.5726-8.9315 0-3.2961-0.6731-6.409-1.4957-6.9174s-1.4957-3.2007-1.4957-5.9829c0-2.7821-0.6732-5.4745-1.4957-5.9829-0.8228-0.5085-1.4957-2.8642-1.4957-5.2351s-0.6732-4.7266-1.4959-5.235c-0.8226-0.5085-1.4957-2.24-1.4957-3.8479 0-2.9318-0.3572-3.8712-4.982-13.1-1.373-2.7403-2.4965-6.2342-2.4965-7.7643 0-1.5302-0.6732-3.198-1.4957-3.7064-0.8228-0.5084-1.4959-2.2309-1.4959-3.8276s-0.673-2.9033-1.4957-2.9033c-0.8226 0-1.4957-1.3064-1.4957-2.9031s-0.6731-3.3191-1.4957-3.8276c-0.8226-0.5083-1.4957-2.2308-1.4957-3.8275s-0.5048-2.9043-1.1218-2.9059c-0.6171 0-3.8052-5.2177-7.0849-11.592-3.2796-6.374-6.3149-11.926-6.745-12.337-0.4302-0.4113-2.1218-3.3141-3.7593-6.4507-1.6373-3.1365-4.1549-6.7746-5.5947-8.0843-1.4396-1.3099-2.6175-3.2868-2.6175-4.3933s-0.673-2.0119-1.4957-2.0119c-0.8226 0-1.4957-1.0096-1.4957-2.2436 0-1.2339-0.6278-2.2435-1.3948-2.2435-0.7673 0-1.8194-1.3367-2.3378-2.9705-0.5186-1.6339-2.7753-4.831-5.0148-7.1048-2.2395-2.2737-5.7064-6.4595-7.7045-9.3016-1.9979-2.8422-9.2097-10.897-16.026-17.9-6.8164-7.0031-12.394-13.259-12.394-13.903 0-0.6435-0.7395-1.1701-1.6435-1.1701-0.9038 0-3.428-1.8686-5.6089-4.1526-2.1811-2.2839-7.3239-6.8272-11.429-10.096-4.1048-3.2689-8.7666-7.1137-10.36-8.5439-1.5932-1.4303-4.1242-2.9901-5.6245-3.4662s-2.7277-1.4118-2.7277-2.0791c0-0.6675-2.0192-2.0499-4.4873-3.0722-2.4679-1.0222-4.4871-2.45-4.4871-3.173 0-0.7227-1.0096-1.3142-2.2436-1.3142-1.2339 0-2.2435-0.6731-2.2435-1.4957 0-0.8227-1.3463-1.4957-2.9916-1.4957s-3-0.5049-3.0104-1.1218c-0.015-0.617-4.3683-3.141-9.6842-5.6091-5.3156-2.4679-9.6821-4.9919-9.7031-5.6089s-1.3843-1.1218-3.0296-1.1218-2.9914-0.673-2.9914-1.4957c0-0.8226-1.6827-1.4957-3.7393-1.4957-2.0567 0-3.7394-0.6732-3.7394-1.4957 0-0.8228-2.0192-1.4958-4.4871-1.4958-2.4681 0-4.4873-0.6731-4.4873-1.4957 0-0.8227-1.548-1.4958-3.4401-1.4958s-4.0796-0.6049-4.8611-1.3444c-2.0255-1.9165-22.999-7.9821-28.344-8.1972l-4.4871-0.1806-0.3836 320.09c-0.2108 176.05-0.064 320.93 0.3272 321.96 0.8458 2.2262 7.7104 2.5104 9.0308 0.3741zm54.594-320c0-124.99 0.5608-227.61 1.2459-228.03 0.6852-0.4235 3.6784 0.883 6.6515 2.9032 2.973 2.0202 6.1143 3.6732 6.9806 3.6732s1.5797 0.5048 1.5852 1.1218c0 0.6169 2.3431 2.7103 5.1943 4.652 2.8513 1.9416 7.0534 5.138 9.3381 7.1029 2.2848 1.9649 4.6647 3.5735 5.2887 3.5744 2.8184 0 10.123 8.2055 9.2531 10.388-0.9565 2.4007-4.4138 74.168-6.741 139.93-0.7278 20.566-2.0413 54.893-2.9191 76.282-2.3584 57.474-4.4061 112.3-5.6277 150.68l-1.0829 34.018-4.048 3.7494c-2.2263 2.0622-4.7169 3.7493-5.5345 3.7493-0.8177 0-2.0251 0.8413-2.6829 1.8698-1.2731 1.9899-14.546 11.592-16.024 11.592-0.4824 0-0.8773-102.27-0.8773-227.26zm97.222 399.27c0-0.8228 0.9535-1.4957 2.119-1.4957 1.1653 0 2.3433-0.5048 2.6175-1.1219 0.6422-1.4451 12.77-9.3482 14.346-9.3482 0.6586 0 2.1678-1.3463 3.3537-2.9914 1.1859-1.6454 2.8902-2.9916 3.7875-2.9916 0.8972 0 2.9362-1.1982 4.5309-2.6628 1.5948-1.4645 5.5785-4.6615 8.8527-7.1046 8.36-6.2377 10.887-8.3014 16.429-13.416 7.5348-6.9545 11.174-9.7223 12.785-9.7223 0.8132 0 1.4785-0.6008 1.4785-1.3349 0-1.6478 16.584-18.109 18.244-18.109 0.6601 0 1.2002-0.6957 1.2002-1.5457s2.1875-3.7709 4.8611-6.491c7.4671-7.5964 14.583-15.723 14.583-16.653 0-0.4608 2.1875-3.1343 4.8611-5.9415 6.7246-7.0603 8.6004-9.4281 8.6004-10.856 0-0.6759 1.3461-2.1991 2.9914-3.385 1.6453-1.1857 2.9915-3.3536 2.9915-4.8173s0.5048-2.6658 1.1217-2.6715c0.617 0 2.8045-2.4811 4.8612-5.501 2.0566-3.0199 4.4124-6.2385 5.235-7.1523 0.8227-0.9138 2.3372-3.1499 3.3655-4.9691 1.0283-1.8191 2.7108-4.7915 3.7393-6.6055 1.0283-1.8138 3.9041-6.357 6.3909-10.096 2.4868-3.7391 6.8482-11.51 9.6921-17.268 2.8438-5.7586 5.5208-10.807 5.9487-11.218 0.9161-0.8805 8.7447-17.036 10.872-22.436 0.8102-2.0566 2.0676-4.908 2.7943-6.3364 0.7266-1.4286 1.3212-3.6161 1.3212-4.8612s0.6195-2.2639 1.3768-2.2639c0.7574 0 1.8187-2.0115 2.3587-4.4701 0.5399-2.4584 1.603-4.8539 2.3625-5.3232 0.7592-0.4694 1.3806-2.4565 1.3806-4.4161s0.6731-3.9788 1.4957-4.4871c0.8227-0.5085 1.4958-2.5674 1.4958-4.5756 0-2.008 0.673-3.651 1.4957-3.651 0.8226 0 1.4957-1.9795 1.4957-4.3989s0.6732-4.8148 1.4957-5.3233c0.8226-0.5085 1.4957-2.6115 1.4957-4.6738 0-2.0622 0.7933-5.2196 1.7628-7.0164 2.4169-4.4793 7.3724-24.152 8.2642-32.808 0.4025-3.9075 1.2826-7.1046 1.9556-7.1046 0.6731 0 1.5968-4.2068 2.0527-9.3483 0.4559-5.1416 1.495-15.07 2.3087-22.062 3.8-32.65 4.8-58.398 3.1514-81.143-2.0704-28.564-5.7985-59.38-8.8214-72.917-4.102-18.369-7.8067-32.418-9.1649-34.755-0.83-1.4285-1.5091-3.9617-1.5091-5.6294 0-1.6675-0.6075-4.2007-1.3499-5.6291-0.7424-1.4286-2.2056-5.6261-3.2515-9.3281-1.046-3.7019-2.4577-7.3701-3.1372-8.1516-0.6796-0.7815-1.2357-2.4546-1.2357-3.7179 0-1.9469-4.0676-11.464-9.1423-21.39-0.7303-1.4284-1.3278-3.616-1.3278-4.861 0-1.2452-0.673-2.2641-1.4957-2.2641-0.8226 0-1.4958-1.6825-1.4958-3.7391 0-2.0567-0.6731-3.7394-1.4957-3.7394-0.8227 0-1.4957-1.2901-1.4957-2.8668 0-1.5768-0.5048-3.0912-1.1218-3.3654-0.617-0.2743-3.8023-5.8832-7.0784-12.464-3.2762-6.5813-8.6689-16.341-11.984-21.688-3.315-5.3472-6.9742-11.573-8.1316-13.835-1.1574-2.2623-2.6636-4.1133-3.3473-4.1133-0.6836 0-1.243-0.6874-1.243-1.5278 0-1.8493-7.2905-13.295-10.46-16.421-1.251-1.234-3.1704-3.9924-4.2653-6.1298-1.8165-3.5463-3.4369-5.6489-12.287-15.944-1.5965-1.8572-2.9029-3.7306-2.9029-4.1631 0-0.4326-2.1876-2.9862-4.8612-5.675-2.6735-2.6886-6.8802-7.4592-9.3483-10.601-5.7553-7.3271-22.679-24.32-31.617-31.746-3.8151-3.1697-8.7765-7.4459-11.025-9.5025-2.249-2.0566-6.6502-5.7586-9.7806-8.2265-3.1303-2.4679-6.5339-5.3285-7.5636-6.3568s-2.5372-1.8696-3.3501-1.8696c-0.8128 0-1.7022-0.5048-1.9765-1.1219-0.6894-1.551-11.436-9.701-17.326-13.139-2.6736-1.5606-4.8611-3.3655-4.8611-4.0108s-0.986-1.1732-2.1909-1.1732c-1.2051 0-2.9116-1.3461-3.7921-2.9914-1.5375-2.8733-1.1374-2.9914 10.119-2.9914 10.849 0 19.756 2.1884 19.784 4.861 0 0.617 0.8531 1.1225 1.8814 1.1236 1.0283 0 3.8252 1.6837 6.2156 3.7394 2.3901 2.0555 4.746 3.739 5.235 3.741 0.489 0 3.2448 2.0195 6.1242 4.4836 2.8792 2.4641 5.7322 4.4817 6.3397 4.4837 0.6076 0 2.5152 1.1813 4.2392 2.6211 5.1147 4.2711 9.2276 7.7127 16.196 13.553 14.679 12.302 58.481 57.451 58.481 60.279 0 0.7302 0.673 1.3277 1.4957 1.3277 0.8226 0 1.4957 0.7624 1.4957 1.6943 0 0.9317 1.1807 2.7827 2.6237 4.1132 3.9535 3.6451 12.862 15.339 15.232 19.994 1.1517 2.2624 2.6534 4.1133 3.337 4.1133 0.6837 0 1.243 0.7609 1.243 1.691 0 1.9588 10.315 16.762 12.197 17.504 0.6955 0.2742 1.2796 1.6203 1.2978 2.9914 0.018 1.3711 1.3495 4.1756 2.9582 6.2322 1.6088 2.0566 2.9399 4.5807 2.9583 5.609 0.018 1.0283 0.6935 1.8697 1.5004 1.8697 0.807 0 1.8895 1.6826 2.4057 3.7392 0.5163 2.0566 1.5386 3.7393 2.2721 3.7393 0.7336 0 1.3336 1.3463 1.3336 2.9915 0 1.6453 0.5048 2.9967 1.1218 3.0032 1.3433 0.015 4.8611 7.257 4.8611 10.009 0 1.0701 0.535 1.9455 1.1891 1.9455 0.654 0 2.4969 3.1972 4.0956 7.1047 1.5986 3.9076 4.7656 10.762 7.0374 15.231 2.272 4.4695 4.1309 9.0219 4.1309 10.116 0 1.0947 0.6165 3.159 1.37 4.5874 2.1634 4.1016 5.5885 12.534 7.7376 19.05 1.0853 3.2906 2.5088 6.6224 3.1635 7.4039s1.1904 3.3055 1.1904 5.6089 0.6024 4.188 1.3387 4.188 1.72 2.5242 2.1861 5.6091c1.9828 13.121 2.8636 16.901 4.1191 17.677 0.7318 0.4523 1.3304 3.1825 1.3304 6.0674 0 2.8847 0.6502 6.4597 1.4447 7.9442 4.521 8.4479 11.135 67.334 11.098 98.814-0.037 31.636-6.4377 89.645-10.975 99.466-0.76 1.6453-1.7799 5.6838-2.2663 8.9744-1.7977 12.164-2.6547 15.752-3.9536 16.555-0.7319 0.4522-1.3305 3.1382-1.3305 5.969s-0.6731 5.1467-1.4957 5.1467c-0.8227 0-1.4958 1.4617-1.4958 3.2481 0 3.1123-6.0082 20.106-9.0244 25.524-0.7951 1.4284-1.4456 3.9127-1.4456 5.5206s-0.6731 3.3394-1.4958 3.8479c-0.8226 0.5085-1.4957 2.2309-1.4957 3.8276 0 1.5968-0.673 2.9031-1.4958 2.9031-0.8225 0-1.4957 1.6828-1.4957 3.7394s-0.6731 3.7393-1.4957 3.7393c-0.8227 0-1.5168 0.8413-1.5424 1.8696-0.026 1.0283-1.7024 5.2351-3.7257 9.3483-2.0234 4.1132-3.6851 8.2639-3.6926 9.2236 0 0.9598-0.5214 1.9694-1.1421 2.2437-0.6205 0.2742-3.4145 5.0439-6.2089 10.599-2.7943 5.5553-5.9885 10.854-7.098 11.775-1.1098 0.9209-2.0176 2.9381-2.0176 4.4827s-0.5914 2.8084-1.3143 2.8084c-0.7228 0-2.1506 2.0192-3.1729 4.4871-1.0222 2.4679-2.45 4.4871-3.173 4.4871-0.7227 0-1.3142 1.2289-1.3142 2.7308s-1.6827 4.3115-3.7393 6.2436c-2.0566 1.9322-3.7393 4.4053-3.7393 5.4958 0 1.0906-0.6732 1.9829-1.4958 1.9829-0.8225 0-1.4957 1.0096-1.4957 2.2436 0 1.2339-0.6731 2.2435-1.4957 2.2435-0.8227 0-1.4957 0.8827-1.4957 1.9616s-1.1983 3.2664-2.6629 4.8612c-1.4644 1.5947-4.6542 5.5917-7.0881 8.8824-2.434 3.2906-5.5054 6.9925-6.8253 8.2264-1.32 1.2341-2.6865 3.1237-3.0366 4.1993-1.8863 5.7936-50.708 54.598-66.392 66.369-2.4679 1.8521-4.8236 3.7312-5.235 4.1754-0.4113 0.4444-3.4401 2.803-6.7308 5.2414-3.2905 2.4384-7.2876 5.6317-8.8824 7.0962-1.5947 1.4645-3.7822 2.6629-4.8611 2.6629s-1.9616 0.6729-1.9616 1.4957c0 0.8226-1.0096 1.4957-2.2435 1.4957-1.234 0-2.2436 0.52-2.2436 1.1555 0 0.6356-2.3559 2.4242-5.2351 3.9748-2.8793 1.5506-5.235 3.3865-5.235 4.0795 0 0.6931-1.3461 1.2603-2.9914 1.2603-1.6454 0-2.9916 0.6729-2.9916 1.4957 0 0.8863-5.4843 1.4957-13.462 1.4957s-13.462-0.6094-13.462-1.4957zm613.25-399.39v-400.88l69.551 0.8029 0.3766 400.48 0.3768 400.48h-70.305zm134.62 0.028v-400.85h55.55l-0.7869 42.254c-0.4327 23.24-1.4945 62.447-2.3592 87.126-0.8647 24.679-2.197 65.064-2.9604 89.744-0.7636 24.68-2.4957 70.785-3.8491 102.46-1.3535 31.672-3.0695 76.432-3.8134 99.466-0.744 23.034-2.035 63.082-2.8688 88.996-0.8339 25.913-2.1492 65.962-2.9227 88.996-0.7737 23.034-2.0245 65.179-2.7796 93.655-0.7551 28.476-1.7748 52.424-2.2662 53.219-0.4911 0.7948-0.9861 11.83-1.0999 24.523-0.1134 12.693-0.5593 24.922-0.9902 27.176l-0.7835 4.0985h-28.07zm457.69 357.37c-130.49-8.9038-249.21-88.119-305.81-204.06-16.356-33.5-26.842-66.565-33.207-104.7-3.8894-23.306-3.9066-82.709-0.031-106.2 6.4168-38.886 16.493-70.755 33.103-104.7 72.573-148.31 236.83-229.49 402.47-198.9 88.945 16.428 172.12 67.636 225.86 139.07 67.716 89.995 89.752 199.82 61.896 308.48-11.87 46.302-37.418 96.48-69.126 135.77-11.692 14.488-39.783 42.456-54.153 53.917-30.176 24.066-75.806 49.486-109.86 61.2-32.923 11.326-65.135 17.815-100.29 20.205-23.828 1.6197-25.88 1.6161-50.855-0.087zm55.342-247.54c5.3471-1.2201 16.453-5.5197 24.679-9.5546 25.193-12.357 41.907-28.833 53.923-53.154 9.832-19.901 11.892-29.185 11.781-53.098-0.087-18.803-0.4349-21.199-5.0589-34.824-17.493-51.546-66.297-84.495-120.47-81.336-44.115 2.5725-81.916 27.228-100.74 65.71-9.0888 18.577-12.184 31.883-12.184 52.376 0 57.993 43.081 107.13 101.77 116.08 11.826 1.8026 33.237 0.7879 46.309-2.1946zm-38.889-52.953c-27.304-4.9155-47.802-25.232-52.528-52.062-7.1042-40.331 31.627-78.098 72.851-71.037 20.903 3.5806 37.321 15.733 46.588 34.483 5.4373 11.002 5.6327 11.945 5.6327 27.18 0 14.128-0.4353 16.712-4.1538 24.653-7.7306 16.507-19.38 27.344-36.073 33.556-9.3109 3.4646-23.261 4.8581-32.316 3.2279zm-625.21-1003.7v-469.66h79.274c65.18 0 79.274 0.35549 79.274 2 0 1.1 2.6923 4.8303 5.983 8.2895 3.2905 3.4591 5.9828 6.9342 5.9828 7.7221 0 0.78809 0.6558 1.4327 1.4574 1.4327 0.8014 0 2.5606 2.1875 3.9093 4.8612s3.9325 6.2072 5.7419 7.8526c1.8093 1.6453 6.2761 7.03 9.926 11.966 3.65 4.936 7.3478 9.6475 8.2175 10.47 0.8696 0.82274 3.494 4.188 5.8321 7.4787 2.3382 3.2905 5.0187 6.6559 5.9571 7.4785 0.9381 0.82273 3.9807 4.6928 6.7611 8.6005 2.7803 3.9077 5.6141 7.1046 6.2973 7.1046 0.6833 0 1.2422 0.72125 1.2422 1.6026 0 0.88145 0.8414 2.4938 1.8697 3.583 1.0284 1.0892 3.5524 4.1404 5.609 6.7803 2.0566 2.6401 4.5806 5.6911 5.6089 6.7804 1.0283 1.0892 1.8696 2.3971 1.8696 2.9065 0 0.5094 1.6827 2.4855 3.7394 4.3916 2.0566 1.9059 3.7393 4.2296 3.7393 5.1636 0 0.9339 0.6943 1.6981 1.5428 1.6981 0.8483 0 1.9761 1.1779 2.5059 2.6175 0.5299 1.4397 2.528 4.0999 4.4404 5.9115 1.9122 1.8117 3.4767 3.692 3.4767 4.1786 0 0.4865 1.6827 2.6992 3.7393 4.9172 2.0567 2.2179 3.7394 4.5212 3.7394 5.1183 0 0.5969 2.0371 3.1695 4.5271 5.7167 2.49 2.547 6.2813 7.2818 8.4253 10.522 2.144 3.2397 4.4817 5.8903 5.195 5.8903s1.2971 0.725 1.2971 1.6109 1.8509 3.5567 4.1132 5.9353c6.3576 6.6841 7.8526 8.6524 7.8526 10.34 0 0.8573 0.6729 1.5588 1.4957 1.5588 0.8226 0 1.4957 1.0096 1.4957 2.2437 0 1.234 0.9037 2.2436 2.008 2.2436 1.1045 0 3.2767 2.3557 4.8273 5.235 1.5506 2.8792 3.3394 5.2351 3.9749 5.2351 0.6356 0 1.1556 1.0096 1.1556 2.2435 0 1.234 1.0096 2.2436 2.2436 2.2436 1.2339 0 2.2435 1.0096 2.2435 2.2436 0 1.2339 1.0098 2.2435 2.2436 2.2435 1.9719 0 2.2437-12.038 2.2437-99.368 0-61.182 0.5624-100.85 1.4638-103.22l1.4638-3.8502 154.87 0.77475 0.4082 465.92c0.2246 256.26 0.043 467.43-0.4024 469.28l-0.8108 3.3655h-154.08l-1.4586-3.8367c-0.926-2.4356-1.4587-92.343-1.4587-246.2 0-222.57-0.2025-242.78-2.4793-247.58-1.3635-2.8734-3.3828-5.5712-4.4871-5.9949-1.1043-0.4239-2.008-1.4234-2.008-2.2214s-1.8509-3.3968-4.1133-5.7752c-6.3576-6.6841-7.8525-8.6524-7.8525-10.34 0-0.8574-0.6731-1.5589-1.4957-1.5589-0.8228 0-1.4957-1.0096-1.4957-2.2434 0-1.2341-1.0096-2.2437-2.2437-2.2437-1.234 0-2.2436-0.6679-2.2436-1.4843 0-1.433-3.9147-6.556-9.3483-12.234-1.4396-1.5043-2.6175-3.352-2.6175-4.1062 0-0.7541-0.5097-1.5954-1.1329-1.8696-0.6231-0.2743-3.4739-3.5275-6.3354-7.2294-2.8612-3.7018-5.8851-7.5017-6.7195-8.444-0.8346-0.9423-3.1999-3.8733-5.2567-6.5132-2.0566-2.6399-4.5806-5.6911-5.6089-6.7803s-1.8696-2.3768-1.8696-2.8616c0-0.4845-2.3559-3.1687-5.2351-5.965-2.8793-2.7961-5.235-5.6631-5.235-6.371s-2.0192-3.4979-4.4873-6.1999c-2.4679-2.7021-4.4871-5.4723-4.4871-6.1562 0-0.6838-0.9809-1.6198-2.1797-2.0799-1.1988-0.46-3.9825-3.6923-6.186-7.1826-2.2034-3.4906-6.1023-8.408-8.6642-10.928-5.0827-4.9988-8.0004-9.0988-9.3632-13.158-0.4833-1.4397-1.8099-2.6175-2.948-2.6175s-2.0696-0.5048-2.0703-1.1218c-7e-4 -0.6171-2.3564-3.7682-5.235-7.0026-2.8787-3.2344-5.234-6.5356-5.234-7.3363 0-0.8005-2.6923-4.0166-5.9828-7.1469-3.2907-3.1303-5.983-6.0998-5.983-6.5991 0-1.2958-7.4902-11.018-12.338-16.014-2.2613-2.3304-5.1992-5.8976-6.5289-7.9271-6.8209-10.41-6.5345-25.372-6.5546 342.46-0.015 190.39-0.4245 347.21-0.9204 348.5-0.8036 2.094-9.3481 2.3497-78.519 2.3497h-77.618zm-2813.1-4.1132 0.37628-469.28 229.59-0.4237c126.28-0.23301 231.78-0.0337 234.46 0.44164l4.8611 0.86551v195.12c0 129.09-0.50623 195.12-1.4957 195.12-0.82265 0-1.4957 0.6472-1.4957 1.4382 0 2.0119-12.838 15.015-14.824 15.015-0.89601 0-1.6291 0.6581-1.6291 1.4623 0 1.9992-15.867 17.982-17.851 17.982-0.87627 0-1.5932 0.658-1.5932 1.4623 0 1.999-15.867 17.982-17.851 17.982-0.87625 0-1.5932 0.673-1.5932 1.4957 0 1.9476-11.514 13.462-13.462 13.462-0.82265 0-1.4957 1.0096-1.4957 2.2437 0 1.2338-0.59459 2.2434-1.3213 2.2434-2.3622 0-3.0682 6.1144-0.80621 6.9823 1.1701 0.4491 2.1275 1.6403 2.1275 2.6473s1.6827 2.7314 3.7393 3.8321 3.7393 2.897 3.7393 3.992 0.89589 1.9908 1.9908 1.9908 2.8914 1.6827 3.9921 3.7394c1.1007 2.0566 2.8971 3.7393 3.9921 3.7393 1.095 0 1.9908 0.8959 1.9908 1.9909 0 1.0949 1.6827 2.8913 3.7393 3.9919 2.0566 1.1007 3.7393 2.8972 3.7393 3.9922 0 1.0949 0.89588 1.9908 1.9908 1.9908 1.095 0 2.8914 1.6827 3.9921 3.7393 1.1007 2.0567 2.5088 3.7394 3.1292 3.7394 1.6118 0 10.332 8.9339 10.332 10.585 0 0.7594 1.0096 1.3807 2.2436 1.3807 1.234 0 2.2436 0.7211 2.2436 1.6025 0 1.6133 3.6368 5.876 5.0132 5.876 0.94315 0 9.9441 8.969 9.9441 9.9087 0 0.3874 1.6827 2.2638 3.7393 4.1698l3.7393 3.4654v192.85c0 148-0.41742 193.27-1.7949 194.65-1.3806 1.3806-55.575 1.7948-234.83 1.7948h-233.04zm310.38 227.09 0.3865-84.392-11.978-11.708c-6.5881-6.4393-11.978-12.381-11.978-13.204 0-0.8231-0.60964-1.4965-1.3548-1.4965-1.8426 0-52.491-50.544-52.491-52.383 0-0.8047-0.6613-1.4631-1.4696-1.4631-0.80825 0-17.895-16.503-37.97-36.674-27.121-27.25-36.737-36.059-37.419-34.279-1.2605 3.2848-1.1702 318.49 0.0917 319.76 0.55584 0.5559 35.388 0.8363 77.404 0.6232l76.393-0.3874zm-25.707-341.78c1.1752-1.1752 2.1367-2.8579 2.1367-3.7394 0-0.8814 1.0096-1.6025 2.2436-1.6025 1.234 0 2.2436-0.6466 2.2436-1.4367 0-0.7902 4.375-5.7903 9.7222-11.111l9.7222-9.6745v-167.73h-155.56v74.801l23.184 23.193c12.751 12.756 23.184 23.858 23.184 24.672 0 0.8137 0.68172 1.4795 1.5149 1.4795 1.4305 0 29.895 27.643 29.895 29.032 0 0.9082 9.0352 9.8564 9.9523 9.8564 1.3216 0 9.4921 8.6957 9.4921 10.102 0 0.7471 1.6827 2.2587 3.7393 3.3594 2.0566 1.1006 3.7393 2.897 3.7393 3.9919 0 1.095 0.62131 1.9909 1.3807 1.9909 1.4795 0 10.585 8.6422 10.585 10.046 0 1.6079 5.2505 4.8161 7.9594 4.8633 1.4984 0.026 3.6859-0.914 4.8611-2.0891zm1422.5 581.61c-0.4995-1.3011-0.908-212.24-0.908-468.75 0-423.9 0.2155-466.47 2.366-467.29 3.0815-1.1825 459.51-1.1483 463.93 0.0353l3.3653 0.90184v390.16l-38.141 38.118c-34.888 34.867-42.51 44.022-36.645 44.022 0.8226 0 1.4957 1.0096 1.4957 2.2436 0 1.2339 0.6734 2.2437 1.4966 2.2437 1.8126 0 17.948 16.314 17.948 18.147 0 0.7134 0.6202 1.2972 1.3784 1.2972 1.8039 0 49.476 47.668 49.476 49.472 0 0.7605 0.6731 1.3828 1.4957 1.3828 1.6318 0 2.2133 383.78 0.5879 388.02-0.8226 2.1435-22.823 2.366-233.92 2.366-211.1 0-233.1-0.2225-233.92-2.366zm310.2-240.69c0-75.451-0.2753-86.004-2.2436-86.004-1.2339 0-2.2435-0.7211-2.2435-1.6026 0-0.8812-0.9616-2.564-2.1368-3.7391-1.1751-1.1754-2.8579-2.1368-3.7393-2.1368-0.8815 0-1.6026-0.7213-1.6026-1.6026 0-2.0709-3.8052-5.8761-5.8761-5.8761-0.8813 0-1.6025-1.0096-1.6025-2.2436 0-1.2339-1.0097-2.2435-2.2435-2.2435-1.2341 0-2.2437-0.7213-2.2437-1.6026 0-2.0709-3.8052-5.8761-5.8761-5.8761-0.8813 0-1.6025-0.7211-1.6025-1.6026 0-2.0708-3.8053-5.8761-5.876-5.8761-0.8815 0-1.6026-0.7211-1.6026-1.6025 0-2.0708-3.8052-5.876-5.8761-5.876-0.8815 0-1.6026-1.0096-1.6026-2.2437 0-1.234-1.0096-2.2436-2.2436-2.2436-1.2339 0-2.2435-0.7211-2.2435-1.6025 0-2.0708-3.8054-5.876-5.8761-5.876-0.8815 0-1.6026-0.7213-1.6026-1.6026 0-2.0708-3.8052-5.8761-5.8761-5.8761-0.8813 0-1.6025-1.0096-1.6025-2.2436 0-1.2339-1.0096-2.2437-2.2437-2.2437-1.2339 0-2.2435-0.7211-2.2435-1.6025 0-2.0708-3.8052-5.876-5.8761-5.876-0.8814 0-1.6025-0.7213-1.6025-1.6026 0-2.0708-3.8053-5.8761-5.8762-5.8761-0.8813 0-1.6025-1.0096-1.6025-2.2436 0-1.2339-1.0096-2.2435-2.2435-2.2435-1.234 0-2.2436-0.6731-2.2436-1.4957 0-0.8228-2.6924-4.1881-5.983-7.4787-3.2905-3.2906-6.656-5.983-7.4786-5.983-0.8227 0-1.4957-1.0096-1.4957-2.2435 0-1.234-1.0096-2.2436-2.2436-2.2436s-2.2436-0.7211-2.2436-1.6025c0-2.0709-3.8053-5.8762-5.876-5.8762-0.8815 0-1.6026-0.7211-1.6026-1.6025 0-2.0707-3.8052-5.876-5.8761-5.876-0.8814 0-1.6025-1.0096-1.6025-2.2436 0-1.2341-1.0096-2.2437-2.2437-2.2437-1.2339 0-2.2435-0.7211-2.2435-1.6025 0-2.0707-3.8054-5.876-5.8761-5.876-0.8814 0-1.6025-0.7213-1.6025-1.6027 0-2.0707-3.8053-5.876-5.8762-5.876-0.8813 0-1.6025-1.0096-1.6025-2.2436 0-1.2339-1.0096-2.2437-2.2437-2.2437-1.2338 0-2.2434-0.8475-2.2434-1.8837 0-1.0361-1.3463-2.7245-2.9916-3.752-2.9845-1.8638-2.9914-1.4937-2.9914 159.68v161.55h154.06zm-23.881-343.32c2.4401-2.4964 4.4367-5.1886 4.4367-5.983 0-0.7942 0.7212-1.444 1.6025-1.444 0.8815 0 2.5642-0.9617 3.7393-2.1368 1.1754-1.1753 2.1368-2.8579 2.1368-3.7394 0-0.8814 1.0096-1.6025 2.2437-1.6025 1.2339 0 2.2435-0.6025 2.2435-1.3388 0-0.7362 1.671-2.9238 3.7135-4.8611l3.7135-3.5224 0.026-84.134 0.026-84.135h-154.06l0.04 37.767 0.04 37.767 5.8269 6.3568c3.2048 3.4962 6.5521 6.3569 7.4386 6.3569 0.8864 0 1.6118 1.0096 1.6118 2.2435 0 1.234 1.0096 2.2436 2.2435 2.2436 1.234 0 2.2436 0.6445 2.2436 1.4321s17.164 18.594 38.141 39.57c20.978 20.976 38.141 38.841 38.141 39.7s0.717 1.5629 1.5932 1.5629c1.9846 0 17.851 15.983 17.851 17.982 0 0.8041 1.0096 1.4621 2.2435 1.4621 1.234 0 2.2436 0.6731 2.2436 1.4957 0 3.1232 6.2638 1.3114 10.52-3.0429zm272.54 117.09 0.3763-469.28 229.59-0.4237c126.28-0.23301 231.78-0.0337 234.46 0.44164l4.8612 0.86551v937.68h-77.479c-58.267 0-77.924-0.445-79.274-1.7948-1.373-1.373-1.795-38.291-1.795-157.05 0-137.01-0.2636-155.26-2.2435-155.26-1.234 0-2.2436-0.6732-2.2436-1.4957 0-0.8228-1.6827-1.4957-3.7393-1.4957s-3.7394-0.6604-3.7394-1.4674c0-0.8069-1.6825-1.8895-3.7392-2.4057-2.0566-0.5161-3.7393-1.4851-3.7393-2.1533 0-0.6681-2.0192-1.6582-4.4873-2.2003-2.4679-0.542-4.4871-1.6051-4.4871-2.3624s-1.2638-1.3769-2.8084-1.3769c-1.5444 0-3.6461-1.0096-4.6703-2.2435-1.024-1.234-3.1257-2.2436-4.6703-2.2436s-2.8082-0.6731-2.8082-1.4957c0-0.8228-1.6827-1.4957-3.7393-1.4957-2.0567 0-3.7394-0.5637-3.7394-1.2528 0-0.6889-3.7019-2.8175-8.2264-4.7302-4.5247-1.9127-8.2267-4.0412-8.2267-4.7302s-1.6825-1.2526-3.7391-1.2526c-2.0567 0-3.7394-0.5436-3.7394-1.208 0-1.2917-10.395-6.2707-13.092-6.2707-0.8891 0-1.8408-0.5502-2.115-1.2227-0.6094-1.4946-19.489-10.743-21.931-10.743-0.9633 0-1.7516-0.6731-1.7516-1.4957 0-0.8228-1.2637-1.4957-2.8082-1.4957-1.5446 0-3.6463-1.0096-4.6703-2.2437-1.0242-1.234-3.0434-2.2436-4.4873-2.2436-1.4437 0-3.4631-1.0096-4.4871-2.2435-1.0241-1.234-3.0697-2.2436-4.5457-2.2436s-2.908-0.5048-3.1822-1.1218c-0.8264-1.8595-10.26-6.3569-13.334-6.3569-2.8147 0-2.8706 3.6835-2.8907 190.33-0.015 104.68-0.4262 191.85-0.9222 193.7l-0.9019 3.3653h-155.21zm310.74-155.93v-154.06h-154.06v115.82c0 114.5 0.034 115.83 2.9914 116.77 1.6454 0.5223 2.9914 1.5773 2.9914 2.3443 0 0.7673 1.2638 1.395 2.8084 1.395 1.5445 0 3.6462 1.0096 4.6703 2.2437 1.024 1.2339 3.0696 2.2436 4.5457 2.2436 1.4759 0 2.908 0.5048 3.1823 1.1217 0.2741 0.617 3.0225 2.2997 6.1074 3.7393s8.1331 3.7955 11.218 5.2351c3.085 1.4396 5.8334 3.1223 6.1075 3.7393 0.2742 0.617 1.8098 1.1218 3.4124 1.1218 1.6025 0 3.3012 1.0096 3.7747 2.2437 0.4735 1.2338 1.7629 2.2434 2.8654 2.2434 1.1024 0 5.1691 1.6828 9.0371 3.7394s7.886 3.7393 8.9289 3.7393c1.0428 0 2.1205 0.5048 2.3948 1.1218 0.274 0.6171 3.5273 2.6616 7.2292 4.5436 3.702 1.8818 7.7404 3.9962 8.9744 4.6985 1.2339 0.7022 9.6474 4.8296 18.697 9.1715 9.0492 4.3421 17.463 8.6795 18.696 9.6385 1.234 0.959 4.5993 2.6385 7.4787 3.7321 2.8792 1.0936 6.2447 2.8177 7.4787 3.8312 1.941 1.5944 5.3238 2.8514 9.3483 3.474 0.6168 0.095 1.1216-69.154 1.1216-153.89zm-2022.7 621.22c-0.54844-0.5483-0.99715-209.2-0.99715-463.68v-462.68h142.09v927.35h-70.05c-38.527 0-70.499-0.4487-71.047-0.9972zm229.72-467.54 0.37628-468.54h465.17l0.3831 117.04 0.383 117.04h-155.57v-76.282h-155.56v623.72h155.56l-0.023-84.882c-0.012-46.685-0.5174-85.608-1.1218-86.495-1.3329-1.9565-10.566-6.6136-13.111-6.6136-1.0068 0-2.6685-1.0096-3.6926-2.2437-1.0241-1.234-3.0697-2.2436-4.5457-2.2436s-2.908-0.5048-3.1822-1.1217c-0.2742-0.617-6.5563-4.0654-13.96-7.6629-7.4038-3.5977-14.471-7.0932-15.705-7.768-9.3535-5.1139-26.586-13.362-27.918-13.362-0.8968 0-2.4685-1.0096-3.4926-2.2437-1.0241-1.234-2.9644-2.2436-4.3117-2.2436s-4.2938-1.7099-6.5476-3.7997l-4.098-3.7999 0.023-75.848c0.012-41.716 0.5957-76.751 1.2957-77.856 1.0272-1.6208 2.8261-1.2934 9.3254 1.6976 4.4289 2.0382 10.913 4.9223 14.41 6.4093 3.4962 1.4868 6.3568 3.2469 6.3568 3.9112s1.7038 1.2079 3.7863 1.2079c2.0824 0 4.1736 1.0096 4.6472 2.2437 0.4735 1.2338 2.4716 2.2434 4.4402 2.2434s3.5793 0.6732 3.5793 1.4957c0 0.8228 0.6764 1.4959 1.503 1.4959 0.8267 0 4.9912 1.6826 9.2543 3.7392 4.2632 2.0566 8.5525 3.7393 9.5318 3.7393s2.6184 1.0096 3.6425 2.2437c1.0241 1.234 3.0433 2.2436 4.4872 2.2436 1.4438 0 3.4631 1.0096 4.4872 2.2435 1.0241 1.234 3.4062 2.2436 5.2935 2.2436s3.6559 0.5048 3.9301 1.1218c0.5281 1.1882 6.838 4.3795 17.326 8.7629 3.4963 1.4612 6.3569 3.2003 6.3569 3.8647s1.6826 1.2078 3.7393 1.2078c2.0566 0 3.7393 0.5436 3.7393 1.208 0 0.6642 2.8606 2.3907 6.3568 3.8364 3.4963 1.4457 8.1434 3.5946 10.327 4.7751 2.1835 1.1806 5.0441 2.1463 6.3568 2.1463s2.3867 0.6197 2.3867 1.3769c0 0.7573 2.0193 1.8204 4.4872 2.3625 2.468 0.542 4.4872 1.6051 4.4872 2.3624s1.6107 1.3769 3.5793 1.3769 3.9667 1.0096 4.4402 2.2437c0.4736 1.2338 2.1885 2.2436 3.8111 2.2436s3.3661 0.673 3.8745 1.4957c0.5085 0.8226 2.4954 1.4957 4.4155 1.4957 1.92 0 3.8784 1.0096 4.3519 2.2436 0.4735 1.2339 2.2282 2.2435 3.8994 2.2435 1.6711 0 3.0384 0.6731 3.0384 1.4957 0 0.8228 1.0111 1.4957 2.2468 1.4957 1.2358 0 6.4522 2.1244 11.592 4.7208 14.164 7.1549 14.374 7.2452 16.85 7.2452 1.271 0 2.6983 1.0096 3.1718 2.2435 0.4735 1.234 2.4155 2.2436 4.3156 2.2436 1.9 0 3.679 0.5048 3.9532 1.1218 0.81 1.8224 10.232 6.3569 13.209 6.3569 1.5101 0 2.97 0.5048 3.2442 1.1218 0.2742 0.6169 2.8543 2.2286 5.7336 3.5816s10.981 5.2231 18.004 8.6005c7.0233 3.3773 13.922 6.1404 15.331 6.1404 1.4089 0 2.5617 0.6731 2.5617 1.4959 0 0.8226 0.9049 1.4957 2.0109 1.4957 1.1061 0 3.7984 1.5359 5.9828 3.413l3.9721 3.4129v160.7h-3.6014c-1.9806 0-6.8604-1.6235-10.844-3.6076-3.9835-1.9841-10.103-4.8059-13.6-6.2707-3.4962-1.4649-6.3567-3.2068-6.3567-3.8711 0-0.6644-1.6827-1.208-3.7394-1.208h-3.7393v248.29h-466.67zm2606.7 0.4482c0-404.16 0.2919-468.25 2.1371-469.28 1.1755-0.6578 106.18-1.0236 233.33-0.81278l231.2 0.38339v234.81h-155.56v-76.282h-155.56v623.72h155.56v-84.607c0-55.461-0.5334-85.604-1.5484-87.5-0.8516-1.5912-2.5433-2.8931-3.7596-2.8931-1.9948 0-4.1163-0.8871-11.145-4.661-1.2339-0.6625-6.9551-3.6017-12.714-6.5313-5.7586-2.9298-11.48-5.9255-12.714-6.6572-1.2341-0.7316-10.994-5.4878-21.688-10.569-10.694-5.0814-20.454-9.8177-21.688-10.525-1.2341-0.7073-4.9358-2.7406-8.2265-4.5186-3.2906-1.7777-6.4773-4.0002-7.0818-4.9385-1.6189-2.5133-1.3564-152.37 0.2715-154.94 1.1551-1.8259 2.623-1.5322 9.3469 1.8698 4.387 2.2195 9.1447 4.0356 10.572 4.0356s2.5961 0.6002 2.5961 1.3337c0 0.7334 1.6827 1.7559 3.7393 2.272 2.0566 0.5162 3.7392 1.5987 3.7392 2.4058 0 0.807 1.7039 1.4672 3.7864 1.4672 2.0824 0 4.1736 1.0096 4.6471 2.2437 0.4736 1.2338 2.4716 2.2434 4.4403 2.2434 1.9686 0 3.5793 0.6732 3.5793 1.4957 0 0.8228 0.6763 1.4959 1.503 1.4959s4.9912 1.6826 9.2543 3.7392c4.2632 2.0566 8.5524 3.7393 9.5318 3.7393 0.9792 0 2.6184 1.0096 3.6425 2.2437 1.0241 1.234 3.0777 2.2436 4.5634 2.2436 1.4859 0 3.7111 1.0096 4.9452 2.2435 1.2339 1.234 3.5816 2.2436 5.2171 2.2436s3.198 0.5048 3.4723 1.1218c0.5281 1.1882 6.8379 4.3795 17.326 8.7629 3.4962 1.4612 6.3568 3.2003 6.3568 3.8647s1.6828 1.2078 3.7394 1.2078 3.7393 0.5436 3.7393 1.208c0 0.6642 2.8605 2.4034 6.3567 3.8647 3.4964 1.4613 8.3761 3.5763 10.844 4.6999 2.4679 1.1237 7.3477 3.216 10.844 4.6496 3.4963 1.4337 6.3569 3.1501 6.3569 3.8145 0 0.6642 1.6107 1.2078 3.5793 1.2078 1.9685 0 3.9667 1.0096 4.4402 2.2437 0.4736 1.2338 2.5648 2.2436 4.6472 2.2436 2.0825 0 3.7862 0.673 3.7862 1.4957 0 0.8226 1.6107 1.4957 3.5793 1.4957 1.9687 0 3.9667 1.0096 4.4402 2.2436 0.4736 1.2339 1.8296 2.2435 3.0135 2.2435 1.9447 0 14.766 5.7475 20.377 9.1349 1.234 0.7449 3.2533 1.7356 4.4871 2.2018 1.2341 0.4662 3.4124 1.4715 4.841 2.2341 1.4284 0.7625 3.5334 1.3866 4.6779 1.3866 1.1444 0 2.9186 1.0096 3.9428 2.2435 1.024 1.234 3.1257 2.2436 4.6703 2.2436 1.5445 0 2.8082 0.6196 2.8082 1.3769s2.0192 1.8204 4.4873 2.3624c2.4679 0.5421 4.4871 1.6052 4.4871 2.3625s1.6266 1.3769 3.6147 1.3769 3.839 0.5048 4.1133 1.1218c0.2742 0.6169 2.8543 2.2286 5.7335 3.5816 2.8794 1.353 10.981 5.2231 18.005 8.6005 7.0232 3.3773 13.922 6.1404 15.331 6.1404 1.4089 0 2.5617 0.6002 2.5617 1.3337 0 0.7334 1.7639 1.7762 3.9199 2.3174 8.3802 2.1033 8.0459-1.4709 8.0459 85.986v80.876h-3.6014c-1.9807 0-6.8604-1.6235-10.844-3.6076-3.9835-1.9841-10.103-4.8059-13.6-6.2707-3.4962-1.4649-6.3569-3.2068-6.3569-3.8711 0-0.6644-1.6825-1.208-3.7392-1.208h-3.7393v248.29h-466.67z"
    />
  </g>
</svg>